<?xml version="1.0" encoding="UTF-8"?>
<svg version="1.1" xmlns="http://www.w3.org/2000/svg" width="200" height="200">
<path d="M0 0 C3.63 0 7.26 0 11 0 C14.36397885 5.73382664 15.5902002 11.87730725 17.0625 18.3125 C17.31837891 19.40240234 17.57425781 20.49230469 17.83789062 21.61523438 C18.97074844 26.45827436 20.06945284 31.30668324 21.12109375 36.16796875 C21.79027429 39.77716806 21.79027429 39.77716806 23 42 C24.42300255 35.99536044 25.81323364 29.99339796 27.01953125 23.94140625 C27.19258789 23.08264893 27.36564453 22.2238916 27.54394531 21.33911133 C27.88767016 19.62291451 28.22434711 17.90528999 28.55371094 16.1862793 C28.97200304 14.11030325 29.47843712 12.05246608 30 10 C30.66 9.67 31.32 9.34 32 9 C31.95875 7.88625 31.9175 6.7725 31.875 5.625 C32 2 32 2 34 0 C36.27734375 -0.30078125 36.27734375 -0.30078125 38.9375 -0.3125 C40.25041016 -0.33763672 40.25041016 -0.33763672 41.58984375 -0.36328125 C44 0 44 0 45.734375 1.171875 C47.41810238 3.60392567 47.77605842 5.64673933 48.3125 8.5625 C49.78095822 16.039005 51.46075228 23.45386232 53.1875 30.875 C53.7226565 33.18489577 54.25781277 35.4947916 54.79296875 37.8046875 C55.19515964 39.53649384 55.59744223 41.2682789 56 43 C56.18175781 42.02160156 56.18175781 42.02160156 56.3671875 41.0234375 C57.29193355 36.2005312 58.38590654 31.64528472 60 27 C60.64332136 24.44022973 61.26761644 21.880582 61.875 19.3125 C63.48181778 12.67631185 65.52160559 6.37301419 68 0 C71.63 0 75.26 0 79 0 C78.33551392 5.73312405 76.98588195 11.0887267 75.375 16.625 C75.11356201 17.53290283 74.85212402 18.44080566 74.58276367 19.3762207 C72.14767647 27.71576678 69.41817279 35.94673493 66.61328125 44.16796875 C64.94833763 49.0760733 63.46522348 54.02886416 62 59 C58.04 58.67 54.08 58.34 50 58 C47.74371058 53.19312254 46.72959942 49.30468146 46 44 C45.43740543 41.19316083 44.78596023 38.41011488 44.125 35.625 C43.88330078 34.56925781 43.88330078 34.56925781 43.63671875 33.4921875 C42.39477034 28.21631361 40.78623866 23.11575152 39 18 C38.47470756 20.20201294 37.94963933 22.40407906 37.42480469 24.60620117 C36.97259251 26.50356176 36.52011584 28.40085933 36.06738281 30.2980957 C34.97075664 34.89920812 33.88006302 39.50142442 32.8125 44.109375 C32.54228027 45.27255249 32.54228027 45.27255249 32.26660156 46.45922852 C31.92789848 47.92016567 31.59123684 49.38157796 31.25683594 50.84350586 C30.11090334 55.77819333 30.11090334 55.77819333 29 58 C24.52745503 59.49084832 20.47254497 59.49084832 16 58 C14.83203125 55.234375 14.83203125 55.234375 13.8125 51.75 C13.46832031 50.61046875 13.12414062 49.4709375 12.76953125 48.296875 C12.08657377 45.37090487 11.83742601 42.9823919 12 40 C11.34 39.67 10.68 39.34 10 39 C10 37.35 10 35.7 10 34 C9.34 33.67 8.68 33.34 8 33 C7.47705078 31.27636719 7.47705078 31.27636719 7.0703125 29.046875 C5.87063585 23.11657517 3.96216603 17.48115858 2.03515625 11.75390625 C1.77347656 10.95339844 1.51179688 10.15289062 1.2421875 9.328125 C1.0035498 8.6155957 0.76491211 7.90306641 0.51904297 7.16894531 C0 5 0 5 0 0 Z " fill="#262F3D" transform="translate(64,50)"/>
<path d="M0 0 C4.595134 0.45184063 8.3038532 2.56150215 12.3125 4.6875 C20.34126937 8.80930993 28.47673022 12.06080523 37 15 C38.07193604 15.38285156 38.07193604 15.38285156 39.16552734 15.7734375 C80.41803504 30.4280984 127.29547223 28.9178404 168 13 C169.14082031 12.41863281 170.28164062 11.83726562 171.45703125 11.23828125 C174 10 174 10 176.375 10.8125 C176.91125 11.204375 177.4475 11.59625 178 12 C177.67 13.65 177.34 15.3 177 17 C175.02 17.495 175.02 17.495 173 18 C173 18.66 173 19.32 173 20 C170.8671875 21.4140625 170.8671875 21.4140625 168 23 C167.07445312 23.54398438 166.14890625 24.08796875 165.1953125 24.6484375 C156.95728226 29.28101939 146.66312531 35 137 35 C136.67 35.66 136.34 36.32 136 37 C133.26953125 37.5625 133.26953125 37.5625 129.8125 38 C126.46122677 38.42896297 123.46011448 38.82868475 120.28930664 40.00927734 C116.48227367 41.15593657 112.91616552 41.35021436 108.9765625 41.4140625 C107.85729874 41.44311172 107.85729874 41.44311172 106.71542358 41.4727478 C104.35206223 41.53212065 101.98865103 41.5787578 99.625 41.625 C98.01430268 41.66321884 96.40362494 41.7022728 94.79296875 41.7421875 C90.86213984 41.83778676 86.93121537 41.921972 83 42 C83 41.34 83 40.68 83 40 C81.82630859 40.01740234 81.82630859 40.01740234 80.62890625 40.03515625 C79.11103516 40.04869141 79.11103516 40.04869141 77.5625 40.0625 C76.55316406 40.07410156 75.54382813 40.08570313 74.50390625 40.09765625 C72 40 72 40 71 39 C69.67318565 38.71743768 68.33761906 38.47594917 67 38.25 C61.89490087 37.26910759 56.92906803 35.93722013 51.9375 34.5 C50.7937793 34.17950684 50.7937793 34.17950684 49.62695312 33.85253906 C47.73200295 33.2970636 45.86280769 32.65523788 44 32 C43.505 31.01 43.505 31.01 43 30 C42.33613281 29.88785156 41.67226563 29.77570313 40.98828125 29.66015625 C36.64345631 28.70031911 33.0702972 26.56278631 29.1875 24.4375 C28.39923828 24.01275391 27.61097656 23.58800781 26.79882812 23.15039062 C24.8626622 22.10603446 22.92994633 21.0557923 21 20 C21 19.34 21 18.68 21 18 C20.45085938 17.91234375 19.90171875 17.8246875 19.3359375 17.734375 C14.28831381 16.14749665 10.15925724 12.1795478 6 9 C5.00226562 8.24009766 5.00226562 8.24009766 3.984375 7.46484375 C1.3374813 5.36403249 0.0921144 4.27634319 -1 1 C-0.67 0.67 -0.34 0.34 0 0 Z " fill="#FA9800" transform="translate(3,126)"/>
<path d="M0 0 C5.67507591 4.97868882 6.6734635 11.14350076 7.29345703 18.46582031 C7.44488508 22.18705217 7.52218807 25.90094514 7.5625 29.625 C7.67421223 37.70138051 7.88724248 45.17685771 10 53 C4.81192335 56.9815472 4.81192335 56.9815472 1.25 57.0625 C-1 56 -1 56 -2.140625 53.43359375 C-2.42421875 52.63050781 -2.7078125 51.82742187 -3 51 C-4.01320313 51.63228516 -4.01320313 51.63228516 -5.046875 52.27734375 C-5.93890625 52.82519531 -6.8309375 53.37304688 -7.75 53.9375 C-8.63171875 54.48277344 -9.5134375 55.02804688 -10.421875 55.58984375 C-15.10772392 58.15286111 -18.92092889 58.11184325 -24.25 58.0625 C-25.51328125 58.05347656 -26.7765625 58.04445312 -28.078125 58.03515625 C-29.04234375 58.02355469 -30.0065625 58.01195312 -31 58 C-31 57.34 -31 56.68 -31 56 C-31.556875 55.95875 -32.11375 55.9175 -32.6875 55.875 C-36.25675176 54.52447231 -37.79869784 52.03422731 -40 49 C-41.85336061 43.41689505 -41.75074966 37.21054066 -39.875 31.6875 C-36.19853232 26.41789632 -32.15814996 23.6213311 -26 22 C-23.24874206 21.83928295 -20.61881226 21.76413967 -17.875 21.8125 C-17.17246094 21.81314453 -16.46992187 21.81378906 -15.74609375 21.81445312 C-12.36459864 21.84321821 -9.23226359 21.95328252 -6 23 C-5.57833474 15.71663286 -5.57833474 15.71663286 -8 9 C-12.86209622 5.87593817 -18.44499779 6.5296992 -24 7 C-26.7251527 7.63452412 -29.30587524 8.40898038 -31.94140625 9.34375 C-34 10 -34 10 -37 10 C-37.23375398 7.14820144 -37.4214117 4.79462494 -37 2 C-35.0625 0.1875 -35.0625 0.1875 -32 -1 C-31.37996094 -1.27585938 -30.75992187 -1.55171875 -30.12109375 -1.8359375 C-20.318256 -5.77151509 -9.15050442 -5.45996949 0 0 Z M-27 34 C-28.56516118 37.13032236 -28.540337 40.59073084 -28 44 C-26.951707 46.31271898 -26.951707 46.31271898 -25 48 C-20.3811766 48.96642048 -15.37592286 48.94131801 -10.94921875 47.1875 C-6.89782609 44.29221194 -6.02015412 40.61756568 -5.2265625 35.98828125 C-4.96226124 34.00233453 -4.96226124 34.00233453 -5 32 C-8.44665742 30.85111419 -11.24351905 30.7960653 -14.875 30.75 C-16.08929688 30.72421875 -17.30359375 30.6984375 -18.5546875 30.671875 C-22.23941521 31.02280145 -24.07816773 31.77897621 -27 34 Z " fill="#262F3D" transform="translate(52,52)"/>
<path d="M0 0 C1 1 1 1 1.0625 4.5625 C1.041875 5.696875 1.02125 6.83125 1 8 C-2.44069261 8.16783866 -5.05111721 7.98485416 -8.375 7 C-14.64248803 5.27103779 -19.88555208 5.55422083 -26 8 C-26.061875 9.258125 -26.12375 10.51625 -26.1875 11.8125 C-26.22230469 12.52019531 -26.25710937 13.22789063 -26.29296875 13.95703125 C-25.90636373 16.65295692 -25.16152466 17.3706866 -23 19 C-20.58749949 20.11853714 -20.58749949 20.11853714 -17.875 21 C-16.90046875 21.3403125 -15.9259375 21.680625 -14.921875 22.03125 C-13.10514906 22.63358694 -11.28294755 23.21995474 -9.453125 23.78125 C-4.29552688 25.37352861 0.08969183 26.95565729 3.10546875 31.76171875 C5.06078797 36.65428606 5.0927878 43.20617458 3.171875 48.1171875 C2.125 49.75 2.125 49.75 0 52 C-0.66 52 -1.32 52 -2 52 C-2 52.66 -2 53.32 -2 54 C-11.98503742 58.33312945 -22.70410226 60.01779652 -33.375 56.6875 C-37 55 -37 55 -39 52 C-39.125 48.8125 -39.125 48.8125 -39 46 C-35.73263993 44.89872462 -34.14145413 45.09881216 -31 46.4375 C-25.44702239 48.43252673 -19.84103489 48.83210274 -14 48 C-11.76364027 46.83184561 -9.78913491 45.78913491 -8 44 C-7.85550159 40.58355657 -7.85550159 40.58355657 -9 37 C-12.81290854 34.07947431 -16.34779481 32.84450099 -20.9375 31.5625 C-27.07636576 29.83390005 -31.61494867 26.96766735 -36.5 22.9375 C-38.91426926 18.20955603 -38.61575277 13.20525892 -38 8 C-36.9765625 5.62890625 -36.9765625 5.62890625 -36 4 C-35.34 4 -34.68 4 -34 4 C-33.74992188 3.38640625 -33.49984375 2.7728125 -33.2421875 2.140625 C-26.8787519 -8.82529548 -9.01061925 -4.20946377 0 0 Z " fill="#252F3D" transform="translate(186,52)"/>
<path d="M0 0 C0.495 0.495 0.495 0.495 1 1 C0.90654524 13.8733934 -2.79003048 24.79003048 -12 34 C-13.32 34 -14.64 34 -16 34 C-14.18181818 20.18181818 -14.18181818 20.18181818 -11 17 C-10.76712992 15.31816052 -10.58735834 13.6287584 -10.4375 11.9375 C-10.35371094 11.01839844 -10.26992187 10.09929687 -10.18359375 9.15234375 C-10.09271484 8.08693359 -10.09271484 8.08693359 -10 7 C-18.45778714 4.81734525 -27.43146286 6.18809124 -36 7 C-36 5.68 -36 4.36 -36 3 C-26.95945333 -4.88150223 -10.19811068 -5.92913412 0 0 Z " fill="#F49701" transform="translate(198,125)"/>
</svg>
