<?xml version="1.0" encoding="UTF-8"?>
<svg version="1.1" xmlns="http://www.w3.org/2000/svg" width="200" height="200">
<path d="M0 0 C3.1328125 -0.38818359 3.1328125 -0.38818359 7.125 -0.3984375 C7.8277002 -0.40130768 8.53040039 -0.40417786 9.25439453 -0.40713501 C10.74056809 -0.40917714 12.22676843 -0.40363678 13.71289062 -0.39111328 C15.99149508 -0.37505992 18.2683259 -0.39095499 20.546875 -0.41015625 C21.98958726 -0.40817384 23.43229841 -0.40433021 24.875 -0.3984375 C26.19242187 -0.39505371 27.50984375 -0.39166992 28.8671875 -0.38818359 C30.41792969 -0.19603271 30.41792969 -0.19603271 32 0 C34.13363651 3.20045476 34.24672228 3.98629436 34.22705078 7.6550293 C34.22689972 8.59577805 34.22674866 9.53652679 34.22659302 10.50578308 C34.21627045 11.51836685 34.20594788 12.53095062 34.1953125 13.57421875 C34.1924826 14.61318802 34.18965271 15.65215729 34.18673706 16.72261047 C34.17553282 20.04435697 34.15042764 23.36583485 34.125 26.6875 C34.11497052 28.93814715 34.10584462 31.18879852 34.09765625 33.43945312 C34.0755927 38.95972722 34.04211271 44.47984442 34 50 C34.68626465 49.98428955 35.3725293 49.9685791 36.07958984 49.95239258 C39.17797663 49.89017281 42.27623224 49.85105102 45.375 49.8125 C46.45523438 49.78736328 47.53546875 49.76222656 48.6484375 49.73632812 C49.6796875 49.72666016 50.7109375 49.71699219 51.7734375 49.70703125 C52.72653809 49.6913208 53.67963867 49.67561035 54.66162109 49.65942383 C55.81911865 49.82800903 55.81911865 49.82800903 57 50 C59.20192224 53.30288336 59.23959968 54.27462727 59.1953125 58.10546875 C59.18564453 59.57983398 59.18564453 59.57983398 59.17578125 61.08398438 C59.15064453 62.62022461 59.15064453 62.62022461 59.125 64.1875 C59.11597656 65.22326172 59.10695312 66.25902344 59.09765625 67.32617188 C59.0740786 69.88434685 59.0411703 72.44205748 59 75 C62.05469802 73.78355585 62.05469802 73.78355585 63.75390625 71.1640625 C64.01584874 68.8606317 64.02427625 66.69154854 63.9375 64.375 C63.87810205 56.30875827 64.9082623 48.46788302 70 42 C73.3125 40.6875 73.3125 40.6875 77 41 C82.87379967 44.20505156 86.87829931 50.23847189 90 56 C90.6640625 58.2734375 90.6640625 58.2734375 91 60 C92.8253125 59.8453125 92.8253125 59.8453125 94.6875 59.6875 C102.22124869 59.65156797 109.79681614 62.86454409 116 67 C116.62569585 70.29912357 116.84652236 71.85735489 116 75 C110.35839362 83.19485371 101.21890492 88.23314466 91.8125 90.6875 C85.63579504 92.5862065 83.73440123 95.53313635 80.703125 101.05859375 C77.84778098 105.98995625 73.9360631 109.91515101 70 114 C69.27039063 114.75796875 68.54078125 115.5159375 67.7890625 116.296875 C61.68186864 122.51758547 61.68186864 122.51758547 58 125 C57.34 125 56.68 125 56 125 C55.67 125.99 55.34 126.98 55 128 C52.75297149 129.55837512 50.5499121 130.95185201 48.1875 132.3125 C47.50606934 132.70985352 46.82463867 133.10720703 46.12255859 133.51660156 C44.0891737 134.69144617 42.04657582 135.84832059 40 137 C38.98808594 137.57621094 37.97617188 138.15242187 36.93359375 138.74609375 C28.69594724 143.15707275 20.01004737 145.69230412 11 148 C10.34684814 148.18183838 9.69369629 148.36367676 9.02075195 148.55102539 C1.65532347 150.43548686 -5.87361529 150.6810081 -13.4375 150.9375 C-14.50272888 150.97411743 -14.50272888 150.97411743 -15.58947754 151.01147461 C-36.35413766 151.63187429 -52.30257381 146.56062352 -67.84375 132.2109375 C-81.44942067 118.26019548 -84.34217173 101.62911142 -84.15405273 82.92431641 C-84.11259915 80.28253579 -84.06247753 77.64135763 -84 75 C-81.69 75 -79.38 75 -77 75 C-77.01047363 74.34926514 -77.02094727 73.69853027 -77.03173828 73.02807617 C-77.07329835 70.0812567 -77.09932608 67.13449889 -77.125 64.1875 C-77.14175781 63.16333984 -77.15851563 62.13917969 -77.17578125 61.08398438 C-77.18222656 60.10107422 -77.18867187 59.11816406 -77.1953125 58.10546875 C-77.20578613 57.19949951 -77.21625977 56.29353027 -77.22705078 55.36010742 C-77 53 -77 53 -75 50 C-72.66162109 49.65942383 -72.66162109 49.65942383 -69.7734375 49.70703125 C-68.2265625 49.7215332 -68.2265625 49.7215332 -66.6484375 49.73632812 C-65.56820312 49.76146484 -64.48796875 49.78660156 -63.375 49.8125 C-62.28703125 49.82603516 -61.1990625 49.83957031 -60.078125 49.85351562 C-57.38492591 49.88895246 -54.69270626 49.93835669 -52 50 C-52.01047363 49.34926514 -52.02094727 48.69853027 -52.03173828 48.02807617 C-52.07329835 45.0812567 -52.09932608 42.13449889 -52.125 39.1875 C-52.14175781 38.16333984 -52.15851562 37.13917969 -52.17578125 36.08398438 C-52.18222656 35.10107422 -52.18867187 34.11816406 -52.1953125 33.10546875 C-52.20578613 32.19949951 -52.21625977 31.29353027 -52.22705078 30.36010742 C-52 28 -52 28 -50 25 C-47.93722534 24.63923645 -47.93722534 24.63923645 -45.36669922 24.65942383 C-43.92543167 24.65976372 -43.92543167 24.65976372 -42.45504761 24.66011047 C-41.41542877 24.67559433 -40.37580994 24.69107819 -39.3046875 24.70703125 C-38.24210724 24.71127609 -37.17952698 24.71552094 -36.08474731 24.71989441 C-32.68124354 24.73672611 -29.27832567 24.77438697 -25.875 24.8125 C-23.57162312 24.82754101 -21.26823698 24.84123042 -18.96484375 24.85351562 C-13.30969495 24.88664426 -7.65488932 24.93688803 -2 25 C-2.01047363 24.34926514 -2.02094727 23.69853027 -2.03173828 23.02807617 C-2.07329835 20.0812567 -2.09932608 17.13449889 -2.125 14.1875 C-2.14175781 13.16333984 -2.15851563 12.13917969 -2.17578125 11.08398438 C-2.18222656 10.10107422 -2.18867187 9.11816406 -2.1953125 8.10546875 C-2.20578613 7.19949951 -2.21625977 6.29353027 -2.22705078 5.36010742 C-2 3 -2 3 0 0 Z " fill="#46535A" transform="translate(84,25)"/>
<path d="M0 0 C3.86882056 1.46748366 5.29173197 3.25807955 7 7 C7.22937185 8.38956666 7.41506506 9.78686804 7.5625 11.1875 C7.60148679 15.01607489 7.60148679 15.01607489 10 17 C11.6752357 16.71281674 13.34080104 16.36871088 15 16 C20.84013846 15.55923483 24.7029341 16.76965646 30 19 C24.64039635 24.84684034 19.89356016 27.7178365 12.0625 29 C6.72093329 30.2224481 4.76932872 31.91100183 1.8125 36.5 C1.18988281 37.56734375 0.56726563 38.6346875 -0.07421875 39.734375 C-13.00500894 61.66163789 -37.15705699 78.54693897 -61.546875 85.2265625 C-81.80391806 89.7637735 -105.23122163 92.98184307 -124.21484375 82.17578125 C-137.06438368 73.71251753 -143.38273572 64.65712963 -148 50 C-148.33789551 49.27014893 -148.67579102 48.54029785 -149.02392578 47.78833008 C-150.25408456 44.27416215 -150.45576424 40.8719035 -150.625 37.1875 C-150.66367188 36.49462891 -150.70234375 35.80175781 -150.7421875 35.08789062 C-150.83573568 33.39232985 -150.91892364 31.69620288 -151 30 C-149.90916847 29.99780016 -149.90916847 29.99780016 -148.79629993 29.99555588 C-131.10259688 29.95850659 -113.40910334 29.89951696 -95.71555805 29.81609726 C-87.15908302 29.77628535 -78.60270025 29.74390383 -70.04614258 29.72900391 C-62.58836341 29.7159985 -55.13078706 29.68906242 -47.67312211 29.64538693 C-43.72417861 29.62274691 -39.77548549 29.60709083 -35.82647133 29.60811615 C-32.10892957 29.60886128 -28.39194181 29.5909705 -24.67454338 29.55883217 C-22.66093666 29.54626148 -20.64723706 29.55340867 -18.63360596 29.56114197 C-16.83108116 29.54027275 -16.83108116 29.54027275 -14.99214172 29.51898193 C-13.42831993 29.51345118 -13.42831993 29.51345118 -11.83290577 29.50780869 C-8.27001406 28.86914736 -6.59486814 27.47253028 -4 25 C-1.31144782 20.49441408 -1.59450416 15.35837937 -1.4375 10.25 C-1.37782916 8.52589373 -1.31424366 6.80191693 -1.24609375 5.078125 C-1.21020142 3.93972168 -1.21020142 3.93972168 -1.17358398 2.77832031 C-1 1 -1 1 0 0 Z " fill="#55ADF3" transform="translate(159,78)"/>
<path d="M0 0 C-5.35960365 5.84684034 -10.10643984 8.7178365 -17.9375 10 C-23.27906671 11.2224481 -25.23067128 12.91100183 -28.1875 17.5 C-28.81011719 18.56734375 -29.43273437 19.6346875 -30.07421875 20.734375 C-43.00500894 42.66163789 -67.15705699 59.54693897 -91.546875 66.2265625 C-111.80391806 70.7637735 -135.23122163 73.98184307 -154.21484375 63.17578125 C-161.80561677 58.17616926 -167.8977315 52.60474351 -173 45 C-173 44.34 -173 43.68 -173 43 C-170.0109216 44.4266056 -167.28344349 46.08431802 -164.5 47.875 C-146.82552411 58.56858083 -121.3573144 58.98912335 -101.65234375 54.18359375 C-89.83866044 50.35520226 -77.38807966 45.92538644 -67 39 C-66.01 39 -65.02 39 -64 39 C-64 38.34 -64 37.68 -64 37 C-59.61538462 34 -59.61538462 34 -57 34 C-57 33.34 -57 32.68 -57 32 C-55.4609375 30.73828125 -55.4609375 30.73828125 -53.375 29.3125 C-49.82914162 26.74847542 -47.1314253 24.0539003 -44.375 20.67578125 C-39.23529412 14.41176471 -39.23529412 14.41176471 -35 13 C-34.67 12.01 -34.34 11.02 -34 10 C-32.22265625 8.17578125 -32.22265625 8.17578125 -30.0625 6.3125 C-29.35222656 5.68988281 -28.64195312 5.06726563 -27.91015625 4.42578125 C-26 3 -26 3 -24 3 C-24 2.34 -24 1.68 -24 1 C-17.01707545 -5.46567088 -7.94753452 -3.34633032 0 0 Z " fill="#499ADB" transform="translate(189,97)"/>
<path d="M0 0 C5.94 0 11.88 0 18 0 C18 5.61 18 11.22 18 17 C12.06 17 6.12 17 0 17 C0 11.39 0 5.78 0 0 Z " fill="#5DAAE8" transform="translate(41,83)"/>
<path d="M0 0 C5.94 0 11.88 0 18 0 C18 5.61 18 11.22 18 17 C12.06 17 6.12 17 0 17 C0 11.39 0 5.78 0 0 Z " fill="#61ACE9" transform="translate(16,83)"/>
<path d="M0 0 C5.94 0 11.88 0 18 0 C18 5.61 18 11.22 18 17 C12.06 17 6.12 17 0 17 C0 11.39 0 5.78 0 0 Z " fill="#5AA8E7" transform="translate(66,58)"/>
<path d="M0 0 C5.94 0 11.88 0 18 0 C18 5.61 18 11.22 18 17 C12.06 17 6.12 17 0 17 C0 11.39 0 5.78 0 0 Z " fill="#5FABE8" transform="translate(41,58)"/>
<path d="M0 0 C5.28 0 10.56 0 16 0 C16 5.28 16 10.56 16 16 C10.72 16 5.44 16 0 16 C0 10.72 0 5.44 0 0 Z " fill="#4FABF4" transform="translate(117,84)"/>
<path d="M0 0 C5.28 0 10.56 0 16 0 C16 5.28 16 10.56 16 16 C10.72 16 5.44 16 0 16 C0 10.72 0 5.44 0 0 Z " fill="#54ADF4" transform="translate(92,84)"/>
<path d="M0 0 C5.28 0 10.56 0 16 0 C16 5.28 16 10.56 16 16 C10.72 16 5.44 16 0 16 C0 10.72 0 5.44 0 0 Z " fill="#59AFF4" transform="translate(67,84)"/>
<path d="M0 0 C5.28 0 10.56 0 16 0 C16 5.28 16 10.56 16 16 C10.72 16 5.44 16 0 16 C0 10.72 0 5.44 0 0 Z " fill="#57AEF4" transform="translate(92,59)"/>
<path d="M0 0 C5.28 0 10.56 0 16 0 C16 5.28 16 10.56 16 16 C10.72 16 5.44 16 0 16 C0 10.72 0 5.44 0 0 Z " fill="#59AFF4" transform="translate(92,34)"/>
<path d="M0 0 C2 1.0625 2 1.0625 3 3 C3.75 9.75 3.75 9.75 1.5 13.5 C-2.03588973 15.62153384 -4.97901723 15.791013 -9 15 C-11.5 13.5 -11.5 13.5 -13 11 C-13.60490364 8.18863833 -13.6484589 5.80616287 -13 3 C-9.11569785 -1.97676213 -5.6490805 -1.36671302 0 0 Z " fill="#505D64" transform="translate(47,126)"/>
<path d="M0 0 C1.65 0 3.3 0 5 0 C4.67 1.65 4.34 3.3 4 5 C2.68 4.67 1.36 4.34 0 4 C0 2.68 0 1.36 0 0 Z " fill="#E6E8E8" transform="translate(43,129)"/>
<path d="" fill="#3D494E" transform="translate(0,0)"/>
<path d="" fill="#3D494E" transform="translate(0,0)"/>
</svg>
