<?xml version="1.0" encoding="UTF-8"?>
<svg version="1.1" xmlns="http://www.w3.org/2000/svg" width="200" height="200">
<path d="M0 0 C66 0 132 0 200 0 C200 66 200 132 200 200 C134 200 68 200 0 200 C0 134 0 68 0 0 Z " fill="#FEFEFE" transform="translate(0,0)"/>
<path d="M0 0 C3.3960021 3.10069757 4.19234758 5.91332351 4.4375 10.4375 C4.29168854 20.45474714 -1.78230464 28.53940812 -8.4296875 35.55859375 C-11.26366047 38.25043738 -14.21478536 40.72846802 -17.25 43.1875 C-22.95044549 47.80595011 -28.39978138 52.46027734 -29.23828125 60.19921875 C-29.57824108 71.59681922 -23.26925404 78.87001839 -17 88 C-20 88 -20 88 -22.234375 86.1640625 C-38.03827751 70.21291866 -38.03827751 70.21291866 -39.5 59.25 C-39.24566193 53.05339964 -35.86344821 48.75417768 -31.50292969 44.56005859 C-25.74595842 39.3207763 -19.66095321 34.50140179 -13.5 29.75 C-6.83514064 24.47730698 -1.66047867 18.31498404 -0.5859375 9.66796875 C-0.51632813 8.51941406 -0.44671875 7.37085938 -0.375 6.1875 C-0.30023438 5.02605469 -0.22546875 3.86460938 -0.1484375 2.66796875 C-0.09945312 1.78753906 -0.05046875 0.90710938 0 0 Z " fill="#F79D28" transform="translate(117,19)"/>
<path d="M0 0 C-3.28556787 1.71261144 -6.59231405 2.94367555 -10.09765625 4.12109375 C-12.21715595 5.10032873 -13.45360548 6.2705432 -15 8 C-12.8131784 8.48225331 -10.62550745 8.96065583 -8.4375 9.4375 C-7.21933594 9.70433594 -6.00117187 9.97117188 -4.74609375 10.24609375 C2.22082275 11.64819478 8.89670303 12.17900172 15.98046875 12.23828125 C17.41838272 12.25270012 17.41838272 12.25270012 18.88534546 12.26741028 C21.98609986 12.29210683 25.08665868 12.30467193 28.1875 12.3125 C29.23968719 12.31578308 30.29187439 12.31906616 31.37594604 12.32244873 C59.65697367 12.47058504 59.65697367 12.47058504 87 6 C87 4.68 87 3.36 87 2 C87.99 2.33 88.98 2.66 90 3 C89.64567805 5.5688341 89.28619768 6.74006516 87.33984375 8.5078125 C84.56724267 10.27598214 81.96539963 11.13207442 78.8125 12.0625 C77.74644531 12.38347656 76.68039063 12.70445312 75.58203125 13.03515625 C48.95838924 20.20640988 -0.20433961 25.99855344 -25 12 C-25 9.8125 -25 9.8125 -24 7 C-16.70796997 0.87399864 -9.23825457 -0.32863356 0 0 Z " fill="#5D89A6" transform="translate(64,158)"/>
<path d="M0 0 C-1.34191406 0.81791016 -1.34191406 0.81791016 -2.7109375 1.65234375 C-15.57443459 9.08302657 -15.57443459 9.08302657 -25 20 C-26.27606728 27.51461841 -22.9305625 31.82418478 -18.75 37.75390625 C-16.70146291 41.55375964 -16.50980613 43.74175025 -17 48 C-19.04405336 53.10578435 -22.48241168 56.90222515 -27 60 C-27.66 59.67 -28.32 59.34 -29 59 C-28.34 58.01 -27.68 57.02 -27 56 C-26.00869332 51.71018612 -26.29037808 48.23396396 -28.49609375 44.3984375 C-29.74641738 42.67761787 -31.01736179 40.97159002 -32.30859375 39.28125 C-35.85663742 34.4958978 -36.60542148 29.85240764 -36 24 C-32.69505353 13.41580434 -23.65577894 8.57008814 -14.45581055 3.6640625 C-4.46830263 -1.48943421 -4.46830263 -1.48943421 0 0 Z " fill="#F79C26" transform="translate(136,53)"/>
<path d="M0 0 C-2.90908228 1.93938819 -5.40862379 2.96774957 -8.6875 4.125 C-10.17830078 4.65480469 -10.17830078 4.65480469 -11.69921875 5.1953125 C-12.45847656 5.46085937 -13.21773437 5.72640625 -14 6 C-14 6.66 -14 7.32 -14 8 C-10.13852412 9.28715863 -6.4674163 9.1822234 -2.44140625 9.203125 C-1.15386696 9.21167511 -1.15386696 9.21167511 0.15968323 9.22039795 C1.98803477 9.22985699 3.81640343 9.23638551 5.64477539 9.24023438 C8.36833449 9.24975814 11.09107724 9.28069125 13.81445312 9.3125 C24.70544019 9.37640945 35.06651646 8.51484579 45.79711914 6.64746094 C49.23280044 6.06401886 52.50668329 5.86694795 56 6 C43.17174698 16.07934166 23.20067513 15.17636736 7.625 15.1875 C6.55644775 15.18830566 5.48789551 15.18911133 4.38696289 15.18994141 C-6.1076466 15.11697772 -16.16190985 14.95014226 -26 11 C-26 9.68 -26 8.36 -26 7 C-17.53233472 2.45255013 -9.70927688 -0.53940427 0 0 Z " fill="#608CA8" transform="translate(79,109)"/>
<path d="M0 0 C0.66 0.33 1.32 0.66 2 1 C1.67 1.99 1.34 2.98 1 4 C13.81503819 5.89852418 26.9287734 5.33783493 39.765625 3.92578125 C43.55474582 4.01272967 45.76523934 5.09345167 49 7 C49 7.66 49 8.32 49 9 C46.64716625 9.65104151 44.29291551 10.29592122 41.9375 10.9375 C41.28072266 11.11990234 40.62394531 11.30230469 39.94726562 11.49023438 C26.34842257 15.17464998 10.0312371 16.28767575 -2.80859375 9.51953125 C-5 8 -5 8 -6 6 C-6 4 -6 4 -4.75 2.3125 C-3 1 -3 1 0 0 Z " fill="#5986A4" transform="translate(76,146)"/>
<path d="M0 0 C0.66 0.33 1.32 0.66 2 1 C2 2.32 2 3.64 2 5 C7.6532342 6.28206476 13.16444143 6.19089892 18.9375 6.1875 C20.61634277 6.1884668 20.61634277 6.1884668 22.32910156 6.18945312 C29.48189024 6.14385436 36.28414288 5.72472516 43.328125 4.4375 C45.99022538 4.00160052 48.31219666 3.74617709 51 4 C53.8125 6.5 53.8125 6.5 56 9 C54.00127261 9.48444764 52.00094063 9.9622766 50 10.4375 C48.88625 10.70433594 47.7725 10.97117188 46.625 11.24609375 C37.93587506 13.05320702 29.4815265 13.21407089 20.625 13.25 C19.36171875 13.270625 18.0984375 13.29125 16.796875 13.3125 C8.16388511 13.34839601 0.33713735 12.8914249 -7 8 C-6.875 5.6875 -6.875 5.6875 -6 3 C-3.0625 1.125 -3.0625 1.125 0 0 Z " fill="#5B88A5" transform="translate(72,128)"/>
<path d="M0 0 C0.99 0.495 0.99 0.495 2 1 C-2.62059985 8.35873309 -9.85809485 10.54896222 -18.06884766 12.48876953 C-31.84616533 15.40531977 -45.62336709 16.19647405 -59.6875 16.1875 C-61.00298828 16.18669434 -62.31847656 16.18588867 -63.67382812 16.18505859 C-75.28045143 16.11212392 -86.97389553 16.00032449 -98 12 C-98 11.67 -98 11.34 -98 11 C-96.44732422 11.10828125 -96.44732422 11.10828125 -94.86328125 11.21875 C-47.33032459 14.60600532 -47.33032459 14.60600532 -2 2 C-1.34 1.34 -0.68 0.68 0 0 Z " fill="#6690AB" transform="translate(160,168)"/>
<path d="M0 0 C3.5716481 2.00135454 7.13719489 4.27438978 9 8 C9.37612682 12.51352187 9.46798614 15.02502888 7.5 19.125 C1.41114382 26.1271846 -6.14516639 30.26181299 -15 33 C-15.66 32.67 -16.32 32.34 -17 32 C-16.19175781 31.49210937 -15.38351563 30.98421875 -14.55078125 30.4609375 C-5.00953731 24.83978192 -5.00953731 24.83978192 0.68359375 15.8046875 C1.46384605 11.6203256 1.42336818 9.67738908 -0.875 6 C-4.90512598 3.42071937 -8.29141816 3.11284183 -13 3 C-9.44570338 -0.55429662 -4.80002763 -0.92766491 0 0 Z " fill="#5986A4" transform="translate(152,107)"/>
<path d="M0 0 C0.66 0.33 1.32 0.66 2 1 C-2.63449591 8.38086386 -9.90325839 10.55709983 -18.13330078 12.50488281 C-25.81384473 14.14091489 -33.13730317 15.16729142 -41 15 C-40.67 14.01 -40.34 13.02 -40 12 C-37.47485352 11.17211914 -37.47485352 11.17211914 -34.12890625 10.53515625 C-32.91396484 10.29216797 -31.69902344 10.04917969 -30.44726562 9.79882812 C-29.16529297 9.55583984 -27.88332031 9.31285156 -26.5625 9.0625 C-12.22771103 6.96185149 -12.22771103 6.96185149 0 0 Z " fill="#638DA9" transform="translate(160,168)"/>
<path d="M0 0 C-0.33 0.99 -0.66 1.98 -1 3 C-4.46918278 4.45208295 -8.25146707 4.11334124 -11.953125 4.09765625 C-12.61334656 4.0962413 -13.27356812 4.09482635 -13.95379639 4.09336853 C-16.05257794 4.08779245 -18.15125095 4.07524447 -20.25 4.0625 C-21.67708179 4.0574819 -23.10416525 4.05291954 -24.53125 4.04882812 C-28.02086832 4.03783088 -31.51042356 4.0205828 -35 4 C-35 3.67 -35 3.34 -35 3 C-30.05 2.67 -25.1 2.34 -20 2 C-20 1.67 -20 1.34 -20 1 C-13.30386804 0.202163 -6.74233419 -0.12910853 0 0 Z " fill="#749AB3" transform="translate(120,180)"/>
<path d="M0 0 C-2.85584773 1.90389849 -4.9311762 2.69462177 -8.1875 3.625 C-9.08855469 3.88539062 -9.98960938 4.14578125 -10.91796875 4.4140625 C-11.94857422 4.70410156 -11.94857422 4.70410156 -13 5 C-13 4.34 -13 3.68 -13 3 C-13.66 2.67 -14.32 2.34 -15 2 C-9.75614911 0.2520497 -5.52677733 -0.19392201 0 0 Z " fill="#6C94AE" transform="translate(79,109)"/>
<path d="M0 0 C0.99 0.33 1.98 0.66 3 1 C2.61402985 3.79828356 2.19863427 4.8205884 0.0625 6.75 C-2 8 -2 8 -4 8 C-4 7.01 -4 6.02 -4 5 C-2.68 4.67 -1.36 4.34 0 4 C0 2.68 0 1.36 0 0 Z " fill="#7399B2" transform="translate(151,160)"/>
<path d="M0 0 C-3.63 1.98 -7.26 3.96 -11 6 C-11 4.68 -11 3.36 -11 2 C-9.73392393 1.46770674 -8.46189588 0.94955456 -7.1875 0.4375 C-6.47980469 0.14746094 -5.77210938 -0.14257812 -5.04296875 -0.44140625 C-3 -1 -3 -1 0 0 Z " fill="#F8A945" transform="translate(136,53)"/>
<path d="M0 0 C0.66 0.33 1.32 0.66 2 1 C1.67 1.99 1.34 2.98 1 4 C-1.28515625 4.94921875 -1.28515625 4.94921875 -4.0625 5.6875 C-5.44115234 6.06455078 -5.44115234 6.06455078 -6.84765625 6.44921875 C-7.55792969 6.63097656 -8.26820313 6.81273437 -9 7 C-6.28672425 4.15635664 -3.30410823 2.12931419 0 0 Z " fill="#6E96AF" transform="translate(144,133)"/>
<path d="M0 0 C1.8871875 0.0309375 1.8871875 0.0309375 3.8125 0.0625 C-0.94640529 2.44195265 -3.73588765 3.16345578 -9.1875 3.0625 C-6.30623588 0.18123588 -3.90053134 -0.06394314 0 0 Z " fill="#83A5BB" transform="translate(148.1875,106.9375)"/>
<path d="M0 0 C0.90105469 0.00902344 1.80210938 0.01804688 2.73046875 0.02734375 C3.41753906 0.03894531 4.10460938 0.05054688 4.8125 0.0625 C1.4553124 1.83173062 -1.37061893 2.73765906 -5.1875 3.0625 C-6.1775 2.4025 -7.1675 1.7425 -8.1875 1.0625 C-5.17259443 0.05753148 -3.14568308 -0.04085303 0 0 Z " fill="#6E95AF" transform="translate(59.1875,157.9375)"/>
<path d="M0 0 C-1.5625 1.5625 -1.5625 1.5625 -4 3 C-7.75 2.6875 -7.75 2.6875 -11 2 C-11 1.67 -11 1.34 -11 1 C-7.26562152 0.12132271 -3.83225427 -0.08912219 0 0 Z " fill="#92B0C3" transform="translate(135,115)"/>
</svg>
