<?xml version="1.0" encoding="UTF-8"?>
<svg version="1.1" xmlns="http://www.w3.org/2000/svg" width="200" height="200">
<path d="M0 0 C66 0 132 0 200 0 C200 66 200 132 200 200 C134 200 68 200 0 200 C0 134 0 68 0 0 Z " fill="#FEFEFE" transform="translate(0,0)"/>
<path d="M0 0 C0.87205078 -0.02449219 1.74410156 -0.04898438 2.64257812 -0.07421875 C8.93257708 -0.1032272 8.93257708 -0.1032272 11.4765625 1.828125 C13.10293699 5.64249971 14.32965383 9.52466653 15.5 13.5 C17.33001405 19.52051386 19.25493242 25.38748357 21.69921875 31.19140625 C22.95347783 34.36394392 23.84587829 37.62264717 24.7890625 40.8984375 C25.5501537 43.33546689 26.45307445 45.64525409 27.4375 48 C29.54437509 53.09363289 31.15543206 58.29978931 32.72412109 63.57861328 C33.71143653 66.85311452 34.76363483 69.80722591 36.21484375 72.92578125 C37.5625 76.375 37.5625 76.375 37.5625 83.375 C32.2825 83.375 27.0025 83.375 21.5625 83.375 C18.79358925 77.35978009 16.68511208 71.74283623 14.5625 65.375 C4.3325 65.045 -5.8975 64.715 -16.4375 64.375 C-17.4275 68.005 -18.4175 71.635 -19.4375 75.375 C-22.0375 81.975 -22.0375 81.975 -23.4375 83.375 C-25.79063555 83.44771741 -28.14583668 83.45870868 -30.5 83.4375 C-32.43552734 83.42396484 -32.43552734 83.42396484 -34.41015625 83.41015625 C-35.40917969 83.39855469 -36.40820312 83.38695312 -37.4375 83.375 C-37.60979587 78.61606927 -37.23039444 74.91697136 -35.625 70.4375 C-35.28855469 69.47972656 -34.95210938 68.52195312 -34.60546875 67.53515625 C-33.78282253 65.3093342 -32.94694875 63.08837873 -32.1015625 60.87109375 C-30.0387248 55.38690074 -28.1734914 49.8341414 -26.27957153 44.28991699 C-22.86702069 34.30666647 -19.39028117 24.3599306 -15.61328125 14.5078125 C-14.55613391 11.69109434 -13.59949837 8.86628058 -12.6875 6 C-10.26114864 -1.03641893 -6.57050911 0.00966962 0 0 Z " fill="#72AE4A" transform="translate(156.4375,49.625)"/>
<path d="M0 0 C1.20849609 0.00064453 2.41699219 0.00128906 3.66210938 0.00195312 C5.55993164 0.02612305 5.55993164 0.02612305 7.49609375 0.05078125 C9.35331055 0.04594727 9.35331055 0.04594727 11.24804688 0.04101562 C24.02033389 0.11539104 32.72802635 1.59882733 42.74609375 9.61328125 C47.43094411 15.50280741 48.51748345 22.00627102 47.93359375 29.36328125 C46.62145654 37.0757322 43.96451253 43.15476049 37.93359375 48.36328125 C30.81684075 53.18000635 24.4688949 54.67213964 16.05859375 54.48828125 C12.03671875 54.42640625 12.03671875 54.42640625 7.93359375 54.36328125 C7.93359375 63.60328125 7.93359375 72.84328125 7.93359375 82.36328125 C4.94675968 83.85669828 2.18959601 83.49503303 -1.12890625 83.48828125 C-2.39863281 83.49085938 -3.66835938 83.4934375 -4.9765625 83.49609375 C-8.06640625 83.36328125 -8.06640625 83.36328125 -9.06640625 82.36328125 C-9.17735062 79.91500751 -9.22379053 77.49467274 -9.22753906 75.04541016 C-9.23250397 74.27955093 -9.23746887 73.51369171 -9.24258423 72.72462463 C-9.25724292 70.17968868 -9.26401409 67.63481506 -9.26953125 65.08984375 C-9.27527981 63.32726031 -9.28103757 61.56467689 -9.2868042 59.80209351 C-9.29732485 56.1014578 -9.30316049 52.40084388 -9.30664062 48.70019531 C-9.31212654 43.95294669 -9.33615207 39.20598473 -9.36461258 34.45882607 C-9.38321595 30.81632643 -9.38844333 27.17389613 -9.3899765 23.531353 C-9.39300896 21.78101408 -9.40105736 20.03067655 -9.41416168 18.28038406 C-9.43117393 15.83334675 -9.42935398 13.38701349 -9.42285156 10.93994141 C-9.43206635 10.21358994 -9.44128113 9.48723846 -9.45077515 8.73887634 C-9.42649734 5.829469 -9.4003584 3.8456289 -7.71614075 1.41300964 C-5.17055725 -0.20674874 -2.98902247 -0.00814688 0 0 Z " fill="#72AE4A" transform="translate(65.06640625,49.63671875)"/>
<path d="M0 0 C1.1653125 -0.00257812 2.330625 -0.00515625 3.53125 -0.0078125 C6.5 0.125 6.5 0.125 8.5 1.125 C8.56971046 9.72251812 8.62291754 18.31991685 8.65543652 26.91764832 C8.67104913 30.91053294 8.6922061 34.90322326 8.72631836 38.89599609 C8.75907005 42.75394585 8.77688609 46.61170947 8.78463173 50.4697876 C8.79014702 51.93689908 8.80091673 53.40400112 8.81719017 54.87103271 C8.9136866 63.93594007 8.65828347 71.04918728 3.75 78.9375 C-2.00739795 84.53497023 -7.7198295 84.45319538 -15.4140625 84.42578125 C-19.64632388 84.0132697 -22.47636984 83.14863016 -25.5 80.125 C-25.6953125 77.3046875 -25.6953125 77.3046875 -25.625 74 C-25.60695313 72.90429688 -25.58890625 71.80859375 -25.5703125 70.6796875 C-25.54710937 69.83664063 -25.52390625 68.99359375 -25.5 68.125 C-23.5625 67.5625 -23.5625 67.5625 -21.5 67.125 C-21.17 67.455 -20.84 67.785 -20.5 68.125 C-18.81391034 68.19705511 -17.12499341 68.20886068 -15.4375 68.1875 C-14.51839844 68.17847656 -13.59929688 68.16945313 -12.65234375 68.16015625 C-11.94207031 68.14855469 -11.23179688 68.13695313 -10.5 68.125 C-9.407072 64.846216 -9.34216128 62.36215589 -9.29467773 58.90942383 C-9.27473251 57.6283223 -9.25478729 56.34722076 -9.23423767 55.02729797 C-9.2172546 53.62887696 -9.20037575 52.23045469 -9.18359375 50.83203125 C-9.16301834 49.4014171 -9.14202171 47.97080895 -9.12062073 46.54020691 C-9.06546067 42.77719994 -9.01602471 39.01413865 -8.96777344 35.2510376 C-8.91751407 31.41014784 -8.86185117 27.56933684 -8.80664062 23.72851562 C-8.69913327 16.19407713 -8.59767189 8.65957309 -8.5 1.125 C-5.64804778 -0.30097611 -3.17538825 -0.0070252 0 0 Z " fill="#73AF4C" transform="translate(29.5,49.875)"/>
<path d="M0 0 C14.32258065 0 14.32258065 0 20.375 4.9375 C22.9601868 9.80958282 22.86033274 14.61198394 22 20 C20.14666017 23.69960585 17.42574215 25.7161719 14 28 C9.38 28 4.76 28 0 28 C0 18.76 0 9.52 0 0 Z " fill="#FBFDFB" transform="translate(73,63)"/>
<path d="M0 0 C2 1 2 1 3.14501953 3.81982422 C3.55349121 5.0523291 3.96196289 6.28483398 4.3828125 7.5546875 C4.60194305 8.21203888 4.82107361 8.86939026 5.04684448 9.54666138 C5.50925706 10.93926614 5.96799 12.33309726 6.42333984 13.72802734 C7.12080674 15.86216926 7.83089964 17.99178536 8.54296875 20.12109375 C12 30.57329269 12 30.57329269 12 34 C4.41 34 -3.18 34 -11 34 C-7.625 21.625 -7.625 21.625 -5.95703125 16.89453125 C-5.60576172 15.89228516 -5.25449219 14.89003906 -4.89257812 13.85742188 C-4.53615234 12.85259766 -4.17972656 11.84777344 -3.8125 10.8125 C-3.44447266 9.76513672 -3.07644531 8.71777344 -2.69726562 7.63867188 C-1.80158738 5.09122337 -0.90246184 2.54505148 0 0 Z " fill="#F8FBF7" transform="translate(155,67)"/>
</svg>
