<?xml version="1.0" encoding="UTF-8"?>
<svg version="1.1" xmlns="http://www.w3.org/2000/svg" width="200" height="200">
<path d="M0 0 C66 0 132 0 200 0 C200 66 200 132 200 200 C134 200 68 200 0 200 C0 134 0 68 0 0 Z " fill="#F6DE1D" transform="translate(0,0)"/>
<path d="M0 0 C4.79593443 3.08615388 9.36096112 6.91882086 11.19140625 12.41015625 C6.57140625 15.38015625 1.95140625 18.35015625 -2.80859375 21.41015625 C-3.77796875 20.44078125 -4.74734375 19.47140625 -5.74609375 18.47265625 C-9.27148433 15.46213001 -12.1007785 14.39282465 -16.71875 14.1796875 C-19.06601236 14.31371236 -19.06601236 14.31371236 -21.87109375 15.97265625 C-24.02116809 18.29068259 -24.02116809 18.29068259 -24.37109375 21.34765625 C-23.6504936 25.27092375 -22.63705481 26.56881904 -19.80859375 29.41015625 C-16.66557862 31.14945161 -13.3825123 32.49337748 -10.05859375 33.84765625 C-0.57357874 37.73876404 8.47458717 42.52541831 14.19140625 51.41015625 C17.34952597 59.14322336 17.7276757 68.57678627 14.62890625 76.41015625 C10.88875439 83.40995434 5.0596116 87.27548084 -2.390625 89.7109375 C-14.05814437 92.09777861 -26.5061796 91.85887702 -36.80859375 85.41015625 C-42.38461486 81.36317819 -45.92600386 77.72311792 -48.80859375 71.41015625 C-46.73421917 70.04022969 -44.65097913 68.68956079 -42.55859375 67.34765625 C-41.67880859 66.76274414 -41.67880859 66.76274414 -40.78125 66.16601562 C-36.39637025 63.38235601 -36.39637025 63.38235601 -33.49609375 63.51953125 C-31.80859375 64.41015625 -31.80859375 64.41015625 -30.05859375 66.72265625 C-26.75049349 70.67399822 -22.87041695 72.88527227 -17.7578125 73.76171875 C-12.72099021 73.97688397 -9.1406914 72.74948898 -4.80859375 70.41015625 C-2.49657489 67.54305317 -2.49657489 67.54305317 -2.80859375 64.03515625 C-4.03071204 59.60497744 -6.11139966 57.8622673 -9.80859375 55.41015625 C-12.6800347 53.94789304 -15.63556116 52.74344523 -18.62109375 51.53515625 C-28.76095923 47.20717736 -36.81508605 42.66468099 -41.80859375 32.41015625 C-44.07328739 25.61607532 -43.89178766 16.76566282 -40.90625 10.18359375 C-32.36560723 -3.61516716 -14.2605397 -6.73213295 0 0 Z " fill="#030200" transform="translate(167.80859375,93.58984375)"/>
<path d="M0 0 C6.27 0 12.54 0 19 0 C19.09062436 9.23218224 19.16390159 18.46406562 19.20724869 27.69659328 C19.22806058 31.98433999 19.25625992 36.27176472 19.30175781 40.55932617 C19.3454457 44.70258276 19.36918515 48.84553104 19.37950897 52.98900032 C19.38685943 54.56415721 19.40121267 56.13929858 19.42292023 57.71432304 C19.56940028 68.79002631 18.74434713 78.04998329 10.79296875 86.4921875 C3.7689842 92.39906775 -4.98061905 92.91669445 -13.796875 92.50390625 C-21.15860574 91.83935182 -27.18975221 88.94932149 -32.2890625 83.59765625 C-33.98705372 81.45656374 -35.54239344 79.30958786 -37 77 C-35.4958659 72.6970341 -32.75152588 71.39446112 -28.875 69.25 C-27.77929688 68.63640625 -26.68359375 68.0228125 -25.5546875 67.390625 C-24.71164063 66.93171875 -23.86859375 66.4728125 -23 66 C-18 71 -18 71 -16.640625 72.640625 C-14.4117804 74.48738196 -12.92746726 74.43319178 -10.0625 74.4375 C-9.20785156 74.45683594 -8.35320312 74.47617188 -7.47265625 74.49609375 C-4.12318411 73.82408275 -3.09871918 72.67868671 -1 70 C-0.38309801 66.7764552 -0.38309801 66.7764552 -0.45410156 63.12011719 C-0.44376389 62.43678314 -0.43342621 61.7534491 -0.42277527 61.04940796 C-0.39335644 58.79832285 -0.3918484 56.5481372 -0.390625 54.296875 C-0.37564259 52.73315721 -0.35891531 51.16945524 -0.34051514 49.60577393 C-0.29683557 45.4958422 -0.27684139 41.38612393 -0.26177979 37.27600098 C-0.24221073 33.07970555 -0.20024055 28.88364073 -0.16015625 24.6875 C-0.08484742 16.45836542 -0.03663124 8.22939774 0 0 Z " fill="#030300" transform="translate(90,92)"/>
</svg>
