<?xml version="1.0" encoding="UTF-8"?>
<svg version="1.1" xmlns="http://www.w3.org/2000/svg" width="200" height="200">
<path d="M0 0 C2.97 0 5.94 0 9 0 C11.31 6.93 13.62 13.86 16 21 C19.22441268 12.96792216 19.22441268 12.96792216 22.25 4.875 C22.58515625 3.94429688 22.9203125 3.01359375 23.265625 2.0546875 C23.50796875 1.37664062 23.7503125 0.69859375 24 0 C26.97 0 29.94 0 33 0 C34.38403895 12.06091089 35.30535107 23.8538131 35 36 C32.69 36 30.38 36 28 36 C27.34 29.07 26.68 22.14 26 15 C23.69 21.93 21.38 28.86 19 36 C17.02 36 15.04 36 13 36 C10.24334756 29.42321498 7.95931288 22.85759508 6 16 C5.34 22.6 4.68 29.2 4 36 C1.69 36 -0.62 36 -3 36 C-1.6419214 4.92576419 -1.6419214 4.92576419 0 0 Z " fill="#00758F" transform="translate(26,107)"/>
<path d="M0 0 C5.66593824 -0.28809855 8.17281518 -0.06114159 13 3 C14.39066917 3.25866447 15.78764012 3.48437348 17.1875 3.6875 C25.43152114 5.35004426 31.93524769 11.9997994 36.62109375 18.71484375 C39.92244242 24.18591732 42.97662536 29.92987609 45 36 C47.14946156 37.5438019 47.14946156 37.5438019 49.75 38.9375 C59.53001329 44.59003987 59.53001329 44.59003987 61 49 C58.69 49.99 56.38 50.98 54 52 C54.56589844 52.47050781 55.13179687 52.94101563 55.71484375 53.42578125 C56.44832031 54.04839844 57.18179688 54.67101562 57.9375 55.3125 C58.66839844 55.92738281 59.39929688 56.54226562 60.15234375 57.17578125 C62 59 62 59 63 62 C59.42842673 60.64703418 56.1260025 59.08737511 52.8125 57.1875 C51.95269531 56.70667969 51.09289062 56.22585937 50.20703125 55.73046875 C47.62791327 53.70825766 46.94093928 52.09616334 46 49 C48.31 48.01 50.62 47.02 53 46 C51.87851563 45.47212891 51.87851563 45.47212891 50.734375 44.93359375 C44.59422132 41.85548006 40.68915245 39.47786945 38 33 C33.11600722 22.6091284 28.70611583 14.10802358 18 9 C15.45051208 8.11305465 12.90929381 7.35384537 10.296875 6.67578125 C8.02497498 6.00734808 6.08043224 5.12133389 4 4 C4.29003906 4.56847656 4.58007812 5.13695312 4.87890625 5.72265625 C5.96867191 7.93636142 6.95998312 10.17233035 7.9375 12.4375 C9.08469227 15.08121753 10.16639732 17.24098922 11.8125 19.625 C13.51100587 23.02201173 12.68729096 25.31362122 12 29 C11.61867852 34.14893269 11.61867852 34.14893269 13 39 C13.99 36.69 14.98 34.38 16 32 C19 33 19 33 20.5 35.6171875 C20.995 36.69226563 21.49 37.76734375 22 38.875 C24.31171165 43.9369542 24.31171165 43.9369542 28 48 C27.67 48.99 27.34 49.98 27 51 C25.68412059 49.87895467 24.37239647 48.75303035 23.0625 47.625 C22.33160156 46.99851563 21.60070312 46.37203125 20.84765625 45.7265625 C19 44 19 44 18 42 C17.67 42.99 17.34 43.98 17 45 C15.02 45 13.04 45 11 45 C8.14915698 40.23872193 7.74183915 36.59053889 8.0625 31.1875 C8.31826008 22.24506782 6.06600898 17.07575499 1.1875 9.8125 C-0.76390523 6.84374632 -1.01304777 6.24355841 -0.8125 2.5 C-0.544375 1.675 -0.27625 0.85 0 0 Z " fill="#00758F" transform="translate(114,48)"/>
<path d="M0 0 C4.28473602 3.12428668 5.60081488 5.99335064 7 11 C7.92795787 19.50268374 6.85274179 26.38051512 3 34 C4.65 34.66 6.3 35.32 8 36 C7.01 38.475 7.01 38.475 6 41 C3.14986919 40.6041485 1.39875665 40.34375573 -0.8125 38.4375 C-3.59368226 36.60986594 -5.67057919 36.96172332 -8.91015625 37.0703125 C-12.47580022 36.95034691 -14.94445649 35.76281357 -18 34 C-22.35213237 28.94338577 -22.61883886 24.86778201 -22.5 18.5 C-22.51546875 17.67113281 -22.5309375 16.84226562 -22.546875 15.98828125 C-22.51202452 10.50804286 -21.61423428 7.34921849 -18 3 C-12.70643516 -1.79729314 -6.69888933 -1.57429328 0 0 Z M-14 8 C-16.08036688 14.24110064 -15.74985169 21.50049437 -13.875 27.75 C-12.11927748 30.21191783 -12.11927748 30.21191783 -9.125 31.1875 C-5.8819292 31.24924417 -5.8819292 31.24924417 -3.1875 29.1875 C0.17389776 24.28946327 0.44272158 19.50635495 -0.29296875 13.6796875 C-0.90448504 10.84685134 -1.71841879 8.42907613 -3.3125 6 C-7.44482774 3.55121319 -10.74167337 4.85804218 -14 8 Z " fill="#F29111" transform="translate(136,107)"/>
<path d="M0 0 C0.86882812 0.09023437 1.73765625 0.18046875 2.6328125 0.2734375 C4.875 0.625 4.875 0.625 6.875 1.625 C6.545 3.275 6.215 4.925 5.875 6.625 C2.575 6.625 -0.725 6.625 -4.125 6.625 C-4.455 8.275 -4.785 9.925 -5.125 11.625 C-4.61710937 11.92792969 -4.10921875 12.23085937 -3.5859375 12.54296875 C-1.40821676 13.86836058 0.73285424 15.24297048 2.875 16.625 C3.49117187 16.9859375 4.10734375 17.346875 4.7421875 17.71875 C7.30235683 19.43369596 8.72500609 20.9721488 9.41796875 23.98828125 C9.65896545 28.38484264 9.31701069 30.92633794 6.9375 34.6875 C2.88112589 37.2537775 -0.34948445 37.9249116 -5.125 37.625 C-8.24214519 36.87518747 -11.16943915 35.86172404 -14.125 34.625 C-13.795 32.975 -13.465 31.325 -13.125 29.625 C-12.28195313 29.72039062 -11.43890625 29.81578125 -10.5703125 29.9140625 C-9.47460938 30.02492187 -8.37890625 30.13578125 -7.25 30.25 C-6.15945312 30.36601562 -5.06890625 30.48203125 -3.9453125 30.6015625 C-2.54925781 30.61316406 -2.54925781 30.61316406 -1.125 30.625 C-0.465 29.965 0.195 29.305 0.875 28.625 C0.96112673 26.62086729 0.96112673 26.62086729 -0.125 24.625 C-2.55484206 22.7873587 -2.55484206 22.7873587 -5.5 21.1875 C-9.66251381 18.82068806 -12.1025987 17.03562945 -14.125 12.625 C-14.03115947 7.36993043 -12.90614087 4.29810828 -9.125 0.625 C-5.9665688 -0.51611063 -3.30940637 -0.36551652 0 0 Z " fill="#F29111" transform="translate(103.125,106.375)"/>
<path d="M0 0 C2.31 0 4.62 0 7 0 C7.34933594 1.07121094 7.69867188 2.14242187 8.05859375 3.24609375 C8.51807145 4.64328104 8.97771546 6.04041365 9.4375 7.4375 C9.66759766 8.14455078 9.89769531 8.85160156 10.13476562 9.58007812 C11.07421147 13.06306795 11.07421147 13.06306795 13 16 C14.32 10.72 15.64 5.44 17 0 C19.31 0 21.62 0 24 0 C19.64834446 25.57924355 19.64834446 25.57924355 11 34 C7.79619983 36.13586678 6.98060033 36.23132175 3.3125 36.125 C2.50425781 36.10695312 1.69601563 36.08890625 0.86328125 36.0703125 C0.24839844 36.04710937 -0.36648437 36.02390625 -1 36 C-1 34.35 -1 32.7 -1 31 C1.31 30.34 3.62 29.68 6 29 C7.23560459 25.47635246 6.74998722 23.39814039 5.56640625 19.90234375 C5.24736328 18.93619141 4.92832031 17.97003906 4.59960938 16.97460938 C4.25736328 15.97236328 3.91511719 14.97011719 3.5625 13.9375 C2.89334689 11.94788474 2.22781262 9.95704765 1.56640625 7.96484375 C1.26677979 7.0843335 0.96715332 6.20382324 0.65844727 5.29663086 C0 3 0 3 0 0 Z " fill="#00758F" transform="translate(63,116)"/>
<path d="M0 0 C2.31 0 4.62 0 7 0 C7 9.9 7 19.8 7 30 C10.63 30 14.26 30 18 30 C18 31.98 18 33.96 18 36 C12.06 36 6.12 36 0 36 C0 24.12 0 12.24 0 0 Z " fill="#F29111" transform="translate(147,107)"/>
<path d="M0 0 C3.63 0 7.26 0 11 0 C11 1.98 11 3.96 11 6 C7.7 6 4.4 6 1 6 C0.67 4.02 0.34 2.04 0 0 Z " fill="#F29111" transform="translate(166,137)"/>
<path d="M0 0 C1.32 0.33 2.64 0.66 4 1 C4 2.32 4 3.64 4 5 C2.68 4.34 1.36 3.68 0 3 C0 2.01 0 1.02 0 0 Z " fill="#00758F" transform="translate(126,58)"/>
</svg>
