<?xml version="1.0" encoding="UTF-8"?>
<svg version="1.1" xmlns="http://www.w3.org/2000/svg" width="200" height="200">
<path d="M0 0 C25.24964769 -1.07663809 25.24964769 -1.07663809 33.99609375 6.796875 C42.45725806 15.5922641 45.30169883 26.98145519 45.3359375 38.890625 C45.3459227 40.12942413 45.3459227 40.12942413 45.35610962 41.39324951 C45.36617467 43.13112178 45.37092856 44.86903221 45.37060547 46.60693359 C45.37496593 49.22950834 45.41131462 51.85037964 45.44921875 54.47265625 C45.53820317 67.6732131 43.98207902 79.62025193 35 90 C28.66300107 95.78920334 23.09707115 98.31675375 14.45581055 98.22705078 C13.71380905 98.22734283 12.97180756 98.22763489 12.20732117 98.22793579 C9.76699933 98.22654803 7.32698692 98.21101313 4.88671875 98.1953125 C3.18992784 98.1915804 1.49313478 98.18873436 -0.20365906 98.18673706 C-4.66051222 98.17911613 -9.11723417 98.1594809 -13.57403564 98.1373291 C-18.12551092 98.11683747 -22.67700748 98.10772825 -27.22851562 98.09765625 C-36.15240127 98.07623352 -45.0761897 98.04211619 -54 98 C-54 99.98 -54 101.96 -54 104 C-38.16 104 -22.32 104 -6 104 C-5.9175 108.66125 -5.835 113.3225 -5.75 118.125 C-5.71358398 119.58437988 -5.67716797 121.04375977 -5.63964844 122.54736328 C-5.6296582 123.70993652 -5.61966797 124.87250977 -5.609375 126.0703125 C-5.5779541 127.84559326 -5.5779541 127.84559326 -5.54589844 129.65673828 C-6.26511675 134.95188645 -9.23439424 138.84623978 -13.375 142.125 C-28.83240077 153.17428648 -54.87475064 151.65454136 -72.81640625 149.5390625 C-83.70692756 147.6085217 -93.48090486 143.73921808 -100.6953125 135.125 C-104.47655939 128.96632244 -104.29308121 122.8226279 -104.265625 115.828125 C-104.26753845 114.75052917 -104.2694519 113.67293335 -104.27142334 112.56268311 C-104.27278162 110.28657802 -104.26911017 108.0104651 -104.26074219 105.734375 C-104.25007973 102.27586136 -104.26062825 98.81787211 -104.2734375 95.359375 C-104.27211503 93.14062387 -104.26955082 90.92187306 -104.265625 88.703125 C-104.26967346 87.67987122 -104.27372192 86.65661743 -104.27789307 85.60235596 C-104.21226525 75.39104564 -103.53244056 66.49903728 -96 59 C-87.07646566 51.61694949 -76.60481134 51.7174822 -65.53125 51.7265625 C-62.91275609 51.70628061 -60.29426653 51.68542996 -57.67578125 51.6640625 C-53.58121916 51.63935677 -49.48672226 51.62413542 -45.39208984 51.61914062 C-41.41741445 51.61312784 -37.44326128 51.57581007 -33.46875 51.5390625 C-32.25288208 51.54410797 -31.03701416 51.54915344 -29.78430176 51.55435181 C-21.60809399 51.46017597 -15.28343876 50.2597695 -8.6953125 45.24609375 C-0.68047648 36.01507615 -0.52583286 25.07018813 -0.3125 13.3125 C-0.27833984 12.02666016 -0.24417969 10.74082031 -0.20898438 9.41601562 C-0.12731117 6.27743111 -0.05790041 3.13909769 0 0 Z M-33 120 C-35.34813734 121.93167398 -35.34813734 121.93167398 -35.375 125.375 C-35.2936314 128.97578938 -35.2936314 128.97578938 -33.375 131.375 C-30.36878996 133.43188056 -28.6623602 134.0732472 -25 134 C-21.50401006 132.08667706 -21.50401006 132.08667706 -19 129 C-18.19129243 125.11820367 -18.65200725 123.57998791 -20.6875 120.1875 C-25.18023188 115.93761849 -28.17887697 116.4818832 -33 120 Z " fill="#FED242" transform="translate(155,50)"/>
<path d="M0 0 C1.49879471 -0.01142031 2.99755205 -0.03171073 4.49609375 -0.06152344 C19.51159277 -0.35917286 36.32141358 0.95565622 47.77490234 11.73266602 C52.00032655 15.96791679 53.14720634 20.15193918 53.17456055 26.06005859 C53.18409256 27.19506302 53.19362457 28.33006744 53.20344543 29.49946594 C53.20207832 31.32613045 53.20207832 31.32613045 53.20068359 33.18969727 C53.20496872 34.45101974 53.20925385 35.71234222 53.21366882 37.0118866 C53.2194089 39.67912749 53.220852 42.34598105 53.21557617 45.01318359 C53.20979491 48.41246592 53.22668674 51.81120098 53.24992085 55.21039295 C53.26829872 58.47432298 53.26447066 61.73822488 53.26318359 65.00219727 C53.27239334 66.21390091 53.28160309 67.42560455 53.29109192 68.67402649 C53.24859097 76.4830345 52.81192686 82.71753589 47.71240234 88.98266602 C41.11723141 94.40536212 35.88756033 97.38626039 27.2644043 97.46875 C25.5666259 97.48898476 25.5666259 97.48898476 23.83454895 97.5096283 C22.61474838 97.52006668 21.39494781 97.53050507 20.13818359 97.54125977 C17.54898761 97.57420645 14.95979498 97.60741796 12.37060547 97.64086914 C8.29358072 97.68922605 4.21652952 97.73302742 0.1394043 97.77197266 C-3.79864447 97.81015168 -7.73643757 97.8633631 -11.67431641 97.91625977 C-12.88399582 97.92467392 -14.09367523 97.93308807 -15.3400116 97.9417572 C-25.08937673 98.08313666 -34.42563055 98.65960057 -42.10009766 105.29516602 C-47.5248073 111.84887615 -49.29719086 119.11561894 -49.51416016 127.54125977 C-49.53352631 128.19723648 -49.55289246 128.8532132 -49.57284546 129.52906799 C-49.63198675 131.5968073 -49.67875994 133.66460431 -49.72509766 135.73266602 C-49.76333799 137.14609996 -49.80239311 138.5595121 -49.84228516 139.97290039 C-49.93763217 143.41345454 -50.02190053 146.85417441 -50.10009766 150.29516602 C-53.43326043 150.38328515 -56.76611813 150.43592798 -60.10009766 150.48266602 C-61.03466797 150.50780273 -61.96923828 150.53293945 -62.93212891 150.55883789 C-71.87157845 150.65260834 -78.56659226 148.72329877 -85.21337891 142.49438477 C-95.22043742 130.82984244 -96.65607357 115.15161123 -96.53759766 100.42016602 C-96.52623779 98.44270386 -96.52623779 98.44270386 -96.51464844 96.42529297 C-96.25401482 81.04886054 -93.70203923 68.45168988 -82.35009766 57.42016602 C-74.13387973 49.75909795 -61.80107156 50.89403755 -51.37353516 51.00219727 C-49.77357382 51.00780347 -48.17360728 51.01206872 -46.57363892 51.01506042 C-42.39460639 51.02642873 -38.21589451 51.05582522 -34.0369873 51.08917236 C-29.75989111 51.12004767 -25.4827423 51.1336028 -21.20556641 51.14868164 C-12.83693088 51.18070401 -4.46855433 51.23180127 3.89990234 51.29516602 C3.89990234 49.31516602 3.89990234 47.33516602 3.89990234 45.29516602 C-12.27009766 45.29516602 -28.44009766 45.29516602 -45.10009766 45.29516602 C-45.18259766 41.17016602 -45.26509766 37.04516602 -45.35009766 32.79516602 C-45.38651367 31.51061523 -45.42292969 30.22606445 -45.46044922 28.90258789 C-45.52543168 22.16537413 -45.22073289 16.81788752 -41.10009766 11.29516602 C-30.58682384 0.69710773 -13.91994011 0.07342057 0 0 Z M-31.10009766 21.29516602 C-31.73017458 25.28565323 -31.73031652 27.31202458 -29.53759766 30.73266602 C-26.11695623 32.92538488 -24.09058487 32.92524294 -20.10009766 32.29516602 C-16.71887775 29.84917715 -15.33072982 28.40220042 -14.47509766 24.29516602 C-15.32391757 20.22083041 -16.77735362 18.75110726 -20.10009766 16.29516602 C-25.51037019 15.1680259 -27.93864181 16.92491823 -31.10009766 21.29516602 Z " fill="#3672A4" transform="translate(96.10009765625,-0.295166015625)"/>
</svg>
