<?xml version="1.0" encoding="UTF-8"?>
<svg version="1.1" xmlns="http://www.w3.org/2000/svg" width="200" height="200">
<path d="M0 0 C5.76463463 4.94111539 9.1671104 10.46777971 9.89770508 18.09814453 C9.99169164 21.29976773 9.98507239 24.48492694 9.9375 27.6875 C9.94072266 28.76837891 9.94394531 29.84925781 9.94726562 30.96289062 C9.90459379 37.35978734 9.25776496 43.06370727 7.625 49.25 C8.26937012 49.41846436 8.91374023 49.58692871 9.57763672 49.76049805 C22.39168264 53.18801702 35.36798818 59.27391105 42.4921875 70.89453125 C45.04695827 76.20669254 45.18047262 81.09241954 43.6875 86.75 C39.36204072 97.75504021 29.76432199 103.31946252 19.625 108.25 C10.17147887 112.25 10.17147887 112.25 6.625 112.25 C6.83648682 112.96978027 7.04797363 113.68956055 7.26586914 114.43115234 C9.35167101 122.02868717 10.11574479 129.01413263 10.0625 136.875 C10.08248047 137.92945313 10.10246094 138.98390625 10.12304688 140.0703125 C10.11830644 147.73085164 9.21563729 155.39563281 3.78686523 161.22314453 C-2.11275883 166.47065822 -7.30509643 166.90943753 -14.9921875 166.71875 C-25.20996934 166.00139805 -33.67502116 159.48162393 -41.2421875 153.05078125 C-43.82769865 150.86777642 -46.51769125 149.05461605 -49.375 147.25 C-50.24125 148.219375 -51.1075 149.18875 -52 150.1875 C-62.76323154 160.95073154 -74.71998926 166.51306684 -89.7890625 166.74609375 C-95.32537827 165.98017643 -98.33937997 163.33269366 -102.125 159.375 C-109.89628996 148.58154173 -107.79662584 133.79489253 -105.91015625 121.4140625 C-105.44770602 118.6798677 -104.9393034 115.96475688 -104.375 113.25 C-105.11363281 112.95867187 -105.85226563 112.66734375 -106.61328125 112.3671875 C-119.67050957 107.09120452 -134.46902641 101.03060504 -140.375 87.25 C-142.22426745 80.29454632 -140.81517165 74.61339293 -137.4375 68.3125 C-130.40493722 57.81432271 -117.81017863 53.30233351 -106.375 49.25 C-105.715 49.25 -105.055 49.25 -104.375 49.25 C-104.69082031 48.11433594 -105.00664063 46.97867188 -105.33203125 45.80859375 C-106.45348935 41.30989377 -106.85269815 36.93405057 -107.0625 32.3125 C-107.09939941 31.51908203 -107.13629883 30.72566406 -107.17431641 29.90820312 C-107.56808522 20.09427271 -106.92229071 12.70371697 -101.375 4.25 C-98.1427727 0.78803105 -95.04683006 -1.62252296 -90.25 -1.98828125 C-72.76464625 -2.32318218 -61.0348346 5.76782444 -48.375 17.25 C-47.81554687 16.693125 -47.25609375 16.13625 -46.6796875 15.5625 C-34.92909672 4.37865797 -16.47936882 -8.54485791 0 0 Z M-92.375 8.25 C-92.375 8.91 -92.375 9.57 -92.375 10.25 C-93.035 10.25 -93.695 10.25 -94.375 10.25 C-99.81040529 22.53874239 -98.22269712 33.57211677 -95.375 46.25 C-89.74025113 45.65686854 -84.11852893 44.98070023 -78.5 44.25 C-77.22382812 44.085 -75.94765625 43.92 -74.6328125 43.75 C-69.89870934 43.08148218 -69.89870934 43.08148218 -66.5078125 39.95703125 C-65.84523437 39.00183594 -65.18265625 38.04664062 -64.5 37.0625 C-61.60560849 32.96122199 -58.65714368 29.04497862 -55.375 25.25 C-61.19530456 17.25941238 -71.7512318 9.94247201 -81.375 7.25 C-85.28251349 6.78302124 -88.60878661 6.99459554 -92.375 8.25 Z M-41.375 24.25 C-39.8262456 27.73672455 -37.72987655 30.43554031 -35.3125 33.375 C-31.47222222 38.05555556 -31.47222222 38.05555556 -30.375 40.25 C-29.715 40.25 -29.055 40.25 -28.375 40.25 C-28.375 40.91 -28.375 41.57 -28.375 42.25 C-24.8153415 42.95279403 -21.25195974 43.63451425 -17.6875 44.3125 C-16.68009766 44.51166016 -15.67269531 44.71082031 -14.63476562 44.91601562 C-13.65830078 45.09970703 -12.68183594 45.28339844 -11.67578125 45.47265625 C-10.33253784 45.73187866 -10.33253784 45.73187866 -8.9621582 45.99633789 C-6.20014641 46.2671438 -4.05317569 45.92745815 -1.375 45.25 C0.26233577 39.16846712 0.84029309 33.27038098 0.875 27 C0.88402344 26.32710937 0.89304688 25.65421875 0.90234375 24.9609375 C0.86150313 18.07248686 -0.72326863 13.33783118 -5.375 8.25 C-17.76728511 2.05385744 -33.10199822 16.63072315 -41.375 24.25 Z M-51.1015625 33.9296875 C-52.04128906 35.01636719 -52.04128906 35.01636719 -53 36.125 C-53.63164063 36.84429687 -54.26328125 37.56359375 -54.9140625 38.3046875 C-56.57517123 40.11106933 -56.57517123 40.11106933 -56.375 42.25 C-51.095 42.25 -45.815 42.25 -40.375 42.25 C-40.375 41.59 -40.375 40.93 -40.375 40.25 C-41.035 40.25 -41.695 40.25 -42.375 40.25 C-42.7771875 39.38375 -42.7771875 39.38375 -43.1875 38.5 C-44.40429189 36.19449957 -45.67833879 34.22943808 -47.375 32.25 C-49.53754517 32.01756336 -49.53754517 32.01756336 -51.1015625 33.9296875 Z M-69.8269043 56.35009766 C-71.33755525 59.18941742 -72.5309978 62.04901787 -73.57324219 65.09033203 C-74.82212274 68.45439944 -76.69950051 71.31132213 -78.5625 74.375 C-80.37348149 77.52275564 -81.38313298 79.41578845 -81.34765625 83.0546875 C-80.00375208 87.4696016 -77.90655569 91.2539805 -75.625 95.25 C-75.19445312 96.03117187 -74.76390625 96.81234375 -74.3203125 97.6171875 C-71.72170167 102.23866903 -69.16994858 106.48993994 -65.375 110.25 C-62.53718747 110.91617136 -60.53574492 111.18585587 -57.6953125 111.1875 C-56.96432343 111.20272705 -56.23333435 111.2179541 -55.48019409 111.23364258 C-53.93892012 111.2551796 -52.39735506 111.26097657 -50.85595703 111.25195312 C-48.50963892 111.25000799 -46.17645472 111.33316442 -43.83203125 111.421875 C-35.80114801 111.67225064 -35.80114801 111.67225064 -28.859375 108.13549805 C-27.05692384 105.58131258 -25.68305889 103.08440251 -24.375 100.25 C-23.75109375 99.28707031 -23.1271875 98.32414062 -22.484375 97.33203125 C-17.28743271 89.59928649 -17.28743271 89.59928649 -15.65625 80.8515625 C-16.70881166 77.04174694 -18.49761528 73.95873775 -20.53515625 70.5859375 C-21.9820581 67.9624679 -22.92024297 65.76910669 -23.87109375 62.9765625 C-25.81438137 58.04868864 -27.76597627 54.11225531 -32.375 51.25 C-43.15547172 48.20695149 -62.5066001 46.14165934 -69.8269043 56.35009766 Z M-20.375 53.25 C-19.27123038 55.14606452 -18.16696687 57.04184154 -17.0625 58.9375 C-16.44761719 59.99324219 -15.83273438 61.04898438 -15.19921875 62.13671875 C-13.60827773 64.85187934 -11.99994355 67.55509361 -10.375 70.25 C-7.99374536 67.86874536 -7.37313759 65.91142433 -6.25 62.75 C-5.89679688 61.7703125 -5.54359375 60.790625 -5.1796875 59.78125 C-4.27401306 57.37501194 -4.27401306 57.37501194 -4.375 55.25 C-5.91501707 54.90912666 -7.45712406 54.57769047 -9 54.25 C-9.85851562 54.064375 -10.71703125 53.87875 -11.6015625 53.6875 C-14.56769005 53.21960382 -17.37707333 53.17966741 -20.375 53.25 Z M-87.6875 54.25 C-88.57050781 54.435625 -89.45351562 54.62125 -90.36328125 54.8125 C-91.02714844 54.956875 -91.69101563 55.10125 -92.375 55.25 C-91.34637215 60.69567686 -90.12885216 65.36817117 -87.375 70.25 C-80.57006816 62.54638478 -80.57006816 62.54638478 -77.375 53.25 C-80.97019292 53.1463548 -84.17289232 53.50021703 -87.6875 54.25 Z M4.625 58.25 C3.30239984 61.45426067 1.99376329 64.66404853 0.6875 67.875 C0.12772461 69.23044922 0.12772461 69.23044922 -0.44335938 70.61328125 C-4.08508604 78.95874866 -4.08508604 78.95874866 -3.23046875 87.72265625 C-2.68003906 88.90730469 -2.12960938 90.09195313 -1.5625 91.3125 C-0.74845703 93.09333984 -0.74845703 93.09333984 0.08203125 94.91015625 C0.59121094 96.01230469 1.10039062 97.11445312 1.625 98.25 C2.30423598 99.91158379 2.97637445 101.57622967 3.625 103.25 C14.44875528 100.52011482 25.6789506 96.26546548 32.9375 87.4375 C34.98806431 83.56421186 35.30837851 81.57806387 34.625 77.25 C33.25038475 74.65294092 31.71040619 72.32908677 29.625 70.25 C28.965 70.25 28.305 70.25 27.625 70.25 C27.625 69.59 27.625 68.93 27.625 68.25 C25.29748045 66.9468315 22.96383216 65.65758538 20.625 64.375 C19.97660156 64.01019531 19.32820313 63.64539063 18.66015625 63.26953125 C14.04790063 60.75790691 9.76509277 59.33997503 4.625 58.25 Z M-124.375 68.25 C-124.375 68.91 -124.375 69.57 -124.375 70.25 C-125.2721875 70.5903125 -125.2721875 70.5903125 -126.1875 70.9375 C-129.08215882 72.67429529 -130.00535715 74.1683036 -131.375 77.25 C-131.89081525 81.30283409 -131.67722275 83.60613415 -129.9375 87.3125 C-122.59963916 95.72419413 -111.18007395 101.04896642 -100.375 103.25 C-100.04886719 102.30898437 -99.72273438 101.36796875 -99.38671875 100.3984375 C-98.94972656 99.15320313 -98.51273438 97.90796875 -98.0625 96.625 C-97.63324219 95.39523438 -97.20398438 94.16546875 -96.76171875 92.8984375 C-95.375 89.25 -95.375 89.25 -93.6484375 86.03125 C-91.9784961 83.14137456 -91.9784961 83.14137456 -93.3125 79.375 C-93.98520353 77.66078619 -94.6758489 75.95359818 -95.375 74.25 C-96.17219836 72.13930748 -96.9550982 70.02355379 -97.73852539 67.90771484 C-98.93542211 64.68265448 -100.15546926 61.46656166 -101.375 58.25 C-109.02366823 58.25 -117.92486725 64.42226971 -124.375 68.25 Z M-87.375 93.25 C-88.04557887 95.0402061 -88.7113469 96.83221489 -89.375 98.625 C-89.74625 99.62273437 -90.1175 100.62046875 -90.5 101.6484375 C-91.48126277 104.10848061 -91.48126277 104.10848061 -91.375 106.25 C-87.085 106.91 -82.795 107.57 -78.375 108.25 C-81.015 103.3 -83.655 98.35 -86.375 93.25 C-86.705 93.25 -87.035 93.25 -87.375 93.25 Z M-10.375 94.25 C-13.015 98.87 -15.655 103.49 -18.375 108.25 C-14.085 107.59 -9.795 106.93 -5.375 106.25 C-5.82875 104.64125 -6.2825 103.0325 -6.75 101.375 C-7.00523437 100.47007813 -7.26046875 99.56515625 -7.5234375 98.6328125 C-8.2354315 96.10430274 -8.2354315 96.10430274 -10.375 94.25 Z M-94.375 114.25 C-97.65742093 126.86357978 -100.66280865 139.74633694 -95.375 152.25 C-92.50732979 155.53458101 -90.76280582 157.10543689 -86.375 157.5625 C-74.25333445 157.31153384 -63.93313078 147.87789918 -55.375 140.25 C-56.80231993 137.32153324 -58.24428912 134.73582937 -60.375 132.25 C-61.035 132.25 -61.695 132.25 -62.375 132.25 C-63.45292689 130.10904844 -64.48972473 127.98202673 -65.43359375 125.77734375 C-67.45717933 121.97667169 -69.25716942 118.98257065 -73.49804688 117.515625 C-78.37488589 116.41529065 -83.3079094 115.86743673 -88.2878418 115.48022461 C-90.38939541 115.24841211 -92.33822846 114.80866883 -94.375 114.25 Z M-12.4765625 116.09570312 C-13.12625 116.22783203 -13.7759375 116.35996094 -14.4453125 116.49609375 C-15.09927002 116.63273437 -15.75322754 116.769375 -16.42700195 116.91015625 C-18.375 117.25 -18.375 117.25 -22.05078125 117.46484375 C-26.43659604 118.50074125 -28.03098112 120.81341106 -30.4375 124.375 C-31.2889265 125.55962867 -32.14178417 126.74323006 -32.99609375 127.92578125 C-33.40069824 128.4976416 -33.80530273 129.06950195 -34.22216797 129.65869141 C-36.41681914 132.68807225 -38.90019312 135.44956064 -41.375 138.25 C-38.06929647 146.5803729 -27.29989926 152.73479716 -19.375 156.25 C-16.44943996 157.16896319 -13.81053628 157.38523591 -10.75 157.375 C-9.97398437 157.37757813 -9.19796875 157.38015625 -8.3984375 157.3828125 C-6.30540752 157.37673369 -6.30540752 157.37673369 -4.375 156.25 C-4.375 155.59 -4.375 154.93 -4.375 154.25 C-3.715 154.25 -3.055 154.25 -2.375 154.25 C0.08647034 148.4805219 1.11497306 143.87597558 1 137.625 C0.99419922 136.85172363 0.98839844 136.07844727 0.98242188 135.28173828 C0.82138503 128.0276249 -0.48185174 121.25915606 -2.375 114.25 C-5.67502972 114.25 -9.23351263 115.42594283 -12.4765625 116.09570312 Z M-59.375 119.25 C-54.19715851 126.17394973 -54.19715851 126.17394973 -48.375 132.25 C-46.70222165 130.46371169 -45.03675557 128.6714925 -43.375 126.875 C-42.89804688 126.36710938 -42.42109375 125.85921875 -41.9296875 125.3359375 C-39.21382286 122.72137235 -39.21382286 122.72137235 -38.375 119.25 C-45.305 119.25 -52.235 119.25 -59.375 119.25 Z " fill="#00CCFF" transform="translate(148.375,17.75)"/>
<path d="M0 0 C4.68796317 2.8950501 8.77605467 6.42344712 10.234375 11.89453125 C11.16656452 18.74158704 11.3930195 24.99387098 7.671875 31.01953125 C3.66347868 35.99068326 0.31000422 38.47580101 -6.0078125 39.3359375 C-13.1275177 39.69575056 -18.34453314 39.19135672 -23.98828125 34.640625 C-29.08369757 29.63479842 -30.03494232 26.05750776 -30.390625 19.01953125 C-30.17838344 12.13997715 -28.58962241 7.80486419 -23.765625 2.89453125 C-17.29271618 -2.6344117 -7.84970384 -3.13766411 0 0 Z " fill="#00CCFF" transform="translate(109.765625,81.10546875)"/>
</svg>
