<?xml version="1.0" encoding="UTF-8"?>
<svg version="1.1" xmlns="http://www.w3.org/2000/svg" width="200" height="200">
<path d="M0 0 C8.30554283 4.73100541 15.80308037 10.59708743 23.0859375 16.7578125 C26.8346763 15.1650385 29.44088273 12.77181355 32.4609375 10.0703125 C42.40904193 1.45050165 53.28447376 -3.67195585 66.56640625 -3.5078125 C71.24834269 -3.15445881 74.52102175 -2.35112566 78.0859375 0.7578125 C85.25580445 9.22983017 86.43045946 17.07219789 86.3984375 27.8828125 C86.41455078 28.94757812 86.43066406 30.01234375 86.44726562 31.109375 C86.45188211 38.71734536 85.25002054 45.47214813 83.0859375 52.7578125 C83.92979004 52.90549072 84.77364258 53.05316895 85.64306641 53.20532227 C100.98854339 56.026347 113.44574701 63.50751169 122.8125 76.07421875 C125.5502616 81.8436734 124.92288687 88.56927447 124.0859375 94.7578125 C122.38654284 98.55365664 120.15908 100.99543722 117.0859375 103.7578125 C116.17714844 104.655 116.17714844 104.655 115.25 105.5703125 C110.39798346 109.86616904 104.81514056 112.48635946 98.9609375 115.1328125 C98.19676514 115.47900635 97.43259277 115.8252002 96.64526367 116.18188477 C92.08378912 118.1531728 88.03698099 119.29816655 83.0859375 119.7578125 C83.5190625 121.15966797 83.5190625 121.15966797 83.9609375 122.58984375 C86.20016847 130.31404458 87.4913916 137.63496761 87.5234375 145.6953125 C87.53793945 146.84640503 87.53793945 146.84640503 87.55273438 148.02075195 C87.4148289 157.42570236 84.12635368 165.56684086 78.0859375 172.7578125 C72.67889088 177.37633149 67.56850764 177.36579049 60.578125 177.13671875 C46.21339378 175.57812934 34.59947264 164.87688225 24.0859375 155.7578125 C20.16732962 158.62806554 16.3196317 161.50223635 12.7109375 164.7578125 C4.04712451 172.20908282 -5.64280299 176.59063558 -17.1640625 177.1328125 C-23.37905299 176.51131345 -27.93564458 175.22252478 -32.2265625 170.5078125 C-39.81922507 160.70750076 -39.71834969 148.6011896 -38.9140625 136.7578125 C-38.22787846 131.36364352 -37.11257409 126.05837269 -35.9140625 120.7578125 C-37.31205078 120.33822266 -37.31205078 120.33822266 -38.73828125 119.91015625 C-52.42538838 115.6602535 -66.14997443 110.15730416 -74.515625 97.8828125 C-76.26117507 93.98214196 -76.57968216 90.74190118 -76.6015625 86.5078125 C-76.60841064 85.83459961 -76.61525879 85.16138672 -76.62231445 84.46777344 C-76.44183032 79.48320829 -74.94614516 76.63214034 -71.9140625 72.7578125 C-71.07681641 71.64986328 -71.07681641 71.64986328 -70.22265625 70.51953125 C-61.35548104 60.68973994 -48.10101003 56.19704425 -35.9140625 51.7578125 C-36.130625 50.96761719 -36.3471875 50.17742188 -36.5703125 49.36328125 C-40.23297256 34.52611666 -41.28912838 19.43077795 -33.78125 5.68359375 C-26.13954303 -6.38625468 -11.82253613 -5.54676628 0 0 Z " fill="#062C4B" transform="translate(75.9140625,13.2421875)"/>
<path d="M0 0 C1.68561707 -0.05658061 3.37059355 -0.13828773 5.05371094 -0.24609375 C16.19996407 -0.94664636 16.19996407 -0.94664636 20.9831543 0.78955078 C24.91036358 4.61031203 26.85591734 8.7944314 28.9831543 13.78955078 C29.77199823 15.13275335 30.58568926 16.46235589 31.4440918 17.76220703 C32.07573242 18.78185547 32.70737305 19.80150391 33.3581543 20.85205078 C34.32881836 22.41632813 34.32881836 22.41632813 35.3190918 24.01220703 C39.55598463 31.08364084 39.55598463 31.08364084 38.9831543 35.78955078 C37.70581055 38.10595703 37.70581055 38.10595703 36.0456543 40.35205078 C33.97768332 43.17290008 32.60394736 45.32411104 31.9831543 48.78955078 C31.3231543 48.78955078 30.6631543 48.78955078 29.9831543 48.78955078 C29.7769043 49.59392578 29.5706543 50.39830078 29.3581543 51.22705078 C27.2659723 56.64770414 24.10479592 61.66790916 19.9831543 65.78955078 C15.10755373 66.42729514 10.23105653 66.5448508 5.31811523 66.65454102 C3.68785717 66.70259447 2.05815357 66.7774933 0.43041992 66.88012695 C-12.68386991 67.69776931 -12.68386991 67.69776931 -16.55725098 64.52960205 C-20.37374947 60.0393041 -22.86386526 54.5624722 -24.0168457 48.78955078 C-24.6768457 48.78955078 -25.3368457 48.78955078 -26.0168457 48.78955078 C-27.0068457 45.32455078 -27.0068457 45.32455078 -28.0168457 41.78955078 C-28.6768457 41.78955078 -29.3368457 41.78955078 -30.0168457 41.78955078 C-32.97967073 36.93051773 -33.22908373 34.30873065 -32.0168457 28.78955078 C-30.45043945 25.50048828 -30.45043945 25.50048828 -28.4543457 22.16455078 C-28.10299561 21.57134033 -27.75164551 20.97812988 -27.38964844 20.36694336 C-26.27821303 18.49974175 -25.14935984 16.64403059 -24.0168457 14.78955078 C-23.25900958 13.53565881 -22.50119679 12.28175273 -21.7434082 11.02783203 C-15.23000588 0.31536087 -12.15687807 0.32236375 0 0 Z " fill="#ECCC4B" transform="translate(97.016845703125,66.21044921875)"/>
<path d="M0 0 C13.31492813 1.87085687 27.31955356 8.33607725 35.80078125 19.03515625 C37 21 37 21 37.875 24.4375 C36.29420201 30.87360611 32.02894314 35.92388928 26.5625 39.625 C25.05970648 40.45039795 23.53545163 41.23707247 22 42 C20.948125 42.55429688 19.89625 43.10859375 18.8125 43.6796875 C10.43523524 47.85029456 1.97489395 50.15363378 -7.1875 52 C-8.27474365 52.21978516 -9.3619873 52.43957031 -10.48217773 52.66601562 C-15.37078032 53.58007311 -19.11484413 54.23521268 -24 53 C-23.10903473 47.43146704 -21.09303761 43.08692474 -18.25 38.25 C-17.89446045 37.64454346 -17.5389209 37.03908691 -17.17260742 36.4152832 C-16.45355325 35.19264791 -15.73439714 33.97007256 -15.01513672 32.74755859 C-10.24865997 24.54206544 -6.91640437 16.29123092 -4.17578125 7.25 C-3.10501685 4.29027914 -2.04394823 2.35613629 0 0 Z " fill="#F94053" transform="translate(156,76)"/>
<path d="M0 0 C-0.6004396 3.87366331 -1.76960603 6.82532402 -3.6171875 10.2734375 C-4.14183594 11.2634375 -4.66648438 12.2534375 -5.20703125 13.2734375 C-5.75746094 14.29695313 -6.30789062 15.32046875 -6.875 16.375 C-10.15167167 22.50805767 -13.3550185 28.56693773 -16 35 C-16.63078915 36.27836736 -17.27391955 37.55084274 -17.9375 38.8125 C-20.27898223 43.41410022 -22.14530688 48.18569019 -24 53 C-30.34459727 53.40448252 -35.33527814 50.56008653 -41 48 C-42.34771484 47.42378906 -42.34771484 47.42378906 -43.72265625 46.8359375 C-51.02193313 43.51910999 -57.8263331 38.62604424 -61 31 C-61.48350388 27.29313693 -61.20912714 25.40954066 -59.5 22.0625 C-46.9863786 6.73331379 -26.7300173 2.47236857 -8 -0.75 C-5.06888266 -0.99425978 -2.82629868 -0.77080873 0 0 Z " fill="#FA4053" transform="translate(68,71)"/>
<path d="M0 0 C2.24609375 0.12890625 2.24609375 0.12890625 5 1 C7.03515625 3.52734375 7.03515625 3.52734375 9.0625 6.9375 C9.84318361 8.21598658 10.6258377 9.49327139 11.41015625 10.76953125 C11.82539551 11.45354004 12.24063477 12.13754883 12.66845703 12.84228516 C15.02487389 16.66076924 17.51200468 20.39142935 20 24.125 C20.5043457 24.8876416 21.00869141 25.6502832 21.52832031 26.43603516 C23.85322153 29.92188802 26.21298685 33.34006569 28.80078125 36.63671875 C29.22681641 37.17989746 29.65285156 37.72307617 30.09179688 38.28271484 C31.22893948 39.70778196 32.38901632 41.11446477 33.55078125 42.51953125 C35 45 35 45 35.01953125 47.5546875 C31.17308182 56.7802712 16.82849572 63.27089039 8 67 C3.75256374 68.10776075 0.89874141 68.00149302 -2.9921875 65.94921875 C-7.9422107 62.30345478 -10.08655924 57.99549298 -11 52 C-11.82055177 39.05645758 -9.68182001 28.51676552 -5.5 16.3125 C-5.19191406 15.40177734 -4.88382813 14.49105469 -4.56640625 13.55273438 C-3.97578489 11.80748627 -3.38343896 10.06282047 -2.7890625 8.31884766 C-1.84688218 5.5500269 -0.92073601 2.77601908 0 0 Z " fill="#F84053" transform="translate(57,114)"/>
<path d="M0 0 C4.19370985 3.10334529 6.24986426 7.08026052 7.125 12.09375 C7.67135258 22.00903763 7.53294986 31.65165237 4.125 41.09375 C3.53912109 42.85138672 3.53912109 42.85138672 2.94140625 44.64453125 C-0.46679688 54.86914062 -0.46679688 54.86914062 -3.875 65.09375 C-5.195 65.09375 -6.515 65.09375 -7.875 65.09375 C-9.30029297 63.4675293 -9.30029297 63.4675293 -10.6171875 61.16796875 C-11.11935791 60.3171875 -11.62152832 59.46640625 -12.13891602 58.58984375 C-12.93640259 57.19958984 -12.93640259 57.19958984 -13.75 55.78125 C-18.31141458 48.10771949 -23.09647954 40.74879527 -28.4375 33.59375 C-29.02063965 32.81217529 -29.6037793 32.03060059 -30.20458984 31.2253418 C-32.50334581 28.17005445 -34.76939323 25.21023544 -37.33984375 22.375 C-38.875 20.09375 -38.875 20.09375 -38.86328125 17.5234375 C-35.1692425 8.44165054 -22.69976737 2.83219346 -14.32421875 -1.10546875 C-9.62829285 -2.64081932 -4.45604378 -2.15375449 0 0 Z " fill="#F94053" transform="translate(146.875,20.90625)"/>
<path d="M0 0 C4.94525423 4.94525423 4.16082904 15.60536766 4.3125 22.25 C4.18048795 29.66742697 3.33270573 35.3340506 -1.625 41 C-2.800625 41.99 -2.800625 41.99 -4 43 C-4.33 43.33 -4.66 43.66 -5 44 C-13.94414335 45.32567978 -20.58295593 42.89615916 -28 38 C-32.91703392 34.28672127 -37.48909594 30.19106353 -42 26 C-43.19689453 24.89205078 -43.19689453 24.89205078 -44.41796875 23.76171875 C-54.1637235 14.35527461 -54.1637235 14.35527461 -57 9 C-56.57202148 6.36401367 -56.57202148 6.36401367 -56 4 C-55.00709961 3.97812622 -55.00709961 3.97812622 -53.99414062 3.95581055 C-40.4671133 3.6264791 -27.15175722 2.89486121 -13.74414062 1.01635742 C-3.9912558 -0.34955266 -3.9912558 -0.34955266 0 0 Z " fill="#F84053" transform="translate(150,136)"/>
<path d="M0 0 C16.99911495 4.76165685 33.65610094 20.24557116 43 35 C43 36.32 43 37.64 43 39 C40.34550565 40.32724717 38.24814384 40.17867359 35.27734375 40.24609375 C33.52139893 40.2934668 33.52139893 40.2934668 31.72998047 40.34179688 C30.47846191 40.37337891 29.22694336 40.40496094 27.9375 40.4375 C17.1633347 40.760219 6.67253675 41.53207499 -4 43 C-7.33135198 43.36079624 -10.66421774 43.68230645 -14 44 C-16.92333972 36.5009981 -18.19687964 30.22859382 -18.25 22.1875 C-18.270625 21.41857422 -18.29125 20.64964844 -18.3125 19.85742188 C-18.35950049 12.8954748 -17.08333864 7.38095845 -12.375 2 C-7.91398043 -0.64356715 -5.05487949 -0.93320852 0 0 Z " fill="#F84053" transform="translate(65,19)"/>
<path d="M0 0 C1.68561707 -0.05658061 3.37059355 -0.13828773 5.05371094 -0.24609375 C16.19996407 -0.94664636 16.19996407 -0.94664636 20.9831543 0.78955078 C24.91036358 4.61031203 26.85591734 8.7944314 28.9831543 13.78955078 C29.77199823 15.13275335 30.58568926 16.46235589 31.4440918 17.76220703 C32.07573242 18.78185547 32.70737305 19.80150391 33.3581543 20.85205078 C34.32881836 22.41632813 34.32881836 22.41632813 35.3190918 24.01220703 C39.55598463 31.08364084 39.55598463 31.08364084 38.9831543 35.78955078 C37.70581055 38.10595703 37.70581055 38.10595703 36.0456543 40.35205078 C33.97768332 43.17290008 32.60394736 45.32411104 31.9831543 48.78955078 C31.3231543 48.78955078 30.6631543 48.78955078 29.9831543 48.78955078 C29.7769043 49.59392578 29.5706543 50.39830078 29.3581543 51.22705078 C27.2659723 56.64770414 24.10479592 61.66790916 19.9831543 65.78955078 C15.10755373 66.42729514 10.23105653 66.5448508 5.31811523 66.65454102 C3.68785717 66.70259447 2.05815357 66.7774933 0.43041992 66.88012695 C-12.68386991 67.69776931 -12.68386991 67.69776931 -16.55725098 64.52960205 C-20.37374947 60.0393041 -22.86386526 54.5624722 -24.0168457 48.78955078 C-24.6768457 48.78955078 -25.3368457 48.78955078 -26.0168457 48.78955078 C-27.0068457 45.32455078 -27.0068457 45.32455078 -28.0168457 41.78955078 C-28.6768457 41.78955078 -29.3368457 41.78955078 -30.0168457 41.78955078 C-32.97967073 36.93051773 -33.22908373 34.30873065 -32.0168457 28.78955078 C-30.45043945 25.50048828 -30.45043945 25.50048828 -28.4543457 22.16455078 C-28.10299561 21.57134033 -27.75164551 20.97812988 -27.38964844 20.36694336 C-26.27821303 18.49974175 -25.14935984 16.64403059 -24.0168457 14.78955078 C-23.25900958 13.53565881 -22.50119679 12.28175273 -21.7434082 11.02783203 C-15.23000588 0.31536087 -12.15687807 0.32236375 0 0 Z M-14.59106445 11.35986328 C-15.4418098 12.81254805 -16.25185298 14.28993523 -17.0168457 15.78955078 C-17.80528647 17.06287943 -18.59556872 18.33507021 -19.38793945 19.60595703 C-20.0835811 20.85085763 -20.77247472 22.09955457 -21.4543457 23.35205078 C-21.8172168 23.97273438 -22.18008789 24.59341797 -22.55395508 25.23291016 C-25.09255366 29.88781654 -25.49329596 32.71968113 -24.0168457 37.78955078 C-22.39840001 41.18406658 -20.52476385 44.38605458 -18.5793457 47.60205078 C-18.0759668 48.45992187 -17.57258789 49.31779297 -17.05395508 50.20166016 C-14.39827227 54.77019999 -14.39827227 54.77019999 -11.0168457 58.78955078 C-6.41122279 59.30571945 -1.77306725 59.20639618 2.8581543 59.22705078 C4.79754883 59.27635742 4.79754883 59.27635742 6.77612305 59.32666016 C8.01749023 59.33375 9.25885742 59.34083984 10.5378418 59.34814453 C11.67721191 59.36159912 12.81658203 59.37505371 13.99047852 59.38891602 C17.14773662 59.04750545 17.14773662 59.04750545 19.22265625 56.51586914 C19.80362061 55.61618408 20.38458496 54.71649902 20.9831543 53.78955078 C21.44117432 53.09361816 21.89919434 52.39768555 22.37109375 51.68066406 C23.69918045 49.43622664 25.00315796 47.17967386 26.2956543 44.91455078 C26.99658203 43.74859375 26.99658203 43.74859375 27.71166992 42.55908203 C29.77323467 38.9353567 30.96365342 36.51595837 31.0769043 32.29736328 C29.63993239 27.6887891 27.56428687 23.71727859 25.1706543 19.53955078 C24.73172852 18.73775391 24.29280273 17.93595703 23.84057617 17.10986328 C20.80295282 11.64531868 20.80295282 11.64531868 15.9831543 7.78955078 C11.55231818 7.0594655 7.09275262 7.14209184 2.6081543 7.10205078 C1.38870117 7.04855469 0.16924805 6.99505859 -1.0871582 6.93994141 C-8.85258807 6.74438734 -8.85258807 6.74438734 -14.59106445 11.35986328 Z " fill="#ECCC4B" transform="translate(97.016845703125,66.21044921875)"/>
<path d="M0 0 C1.23234375 -0.02835937 2.4646875 -0.05671875 3.734375 -0.0859375 C12.70136353 -0.10538867 12.70136353 -0.10538867 16.640625 2.4765625 C17.29546875 3.47429687 17.9503125 4.47203125 18.625 5.5 C19.05828613 6.15516602 19.49157227 6.81033203 19.93798828 7.48535156 C21.37549126 9.74177433 22.69301945 12.04083239 24 14.375 C24.46277344 15.15230469 24.92554688 15.92960937 25.40234375 16.73046875 C27.42412653 20.32139637 28.59867719 22.79407 28.75390625 26.95703125 C27.20122641 31.82997455 24.82618518 35.950455 22.1875 40.3125 C21.68412109 41.17037109 21.18074219 42.02824219 20.66210938 42.91210938 C16.95412042 49.17087958 16.95412042 49.17087958 14.625 51.5 C10.01937709 52.01616867 5.38122154 51.91684539 0.75 51.9375 C-0.54292969 51.97037109 -1.83585937 52.00324219 -3.16796875 52.03710938 C-5.03001953 52.04774414 -5.03001953 52.04774414 -6.9296875 52.05859375 C-8.06905762 52.07204834 -9.20842773 52.08550293 -10.38232422 52.09936523 C-13.375 51.5 -13.375 51.5 -15.61450195 49.22631836 C-16.19546631 48.3266333 -16.77643066 47.42694824 -17.375 46.5 C-17.83302002 45.80406738 -18.29104004 45.10813477 -18.76293945 44.39111328 C-20.09102616 42.14667586 -21.39500366 39.89012308 -22.6875 37.625 C-23.15478516 36.84769531 -23.62207031 36.07039063 -24.10351562 35.26953125 C-26.16431475 31.64715169 -27.35474191 29.22442942 -27.47265625 25.0078125 C-26.0274475 20.3893162 -23.91722704 16.42707789 -21.5 12.25 C-21.05269531 11.44820312 -20.60539062 10.64640625 -20.14453125 9.8203125 C-14.60496026 0.0484439 -11.20996787 -0.02330555 0 0 Z M-11.8046875 9.71875 C-12.58199219 11.09546875 -12.58199219 11.09546875 -13.375 12.5 C-14.21804687 13.72009766 -14.21804687 13.72009766 -15.078125 14.96484375 C-15.58859375 15.78082031 -16.0990625 16.59679687 -16.625 17.4375 C-17.14578125 18.25089844 -17.6665625 19.06429687 -18.203125 19.90234375 C-19.65971093 23.13110924 -19.83951277 24.98109664 -19.375 28.5 C-18.16989246 31.06715932 -16.96892654 33.35092275 -15.5 35.75 C-14.95279297 36.68585938 -14.95279297 36.68585938 -14.39453125 37.640625 C-12.88754507 40.18332168 -11.47232036 42.40267964 -9.375 44.5 C-3.07703623 45.79582869 4.36247481 45.97929384 10.625 44.5 C14.42478219 41.37454535 15.8753486 38.01739264 17.625 33.5 C18.17027344 32.67886719 18.71554688 31.85773438 19.27734375 31.01171875 C20.98900339 27.82158209 21.12034935 26.08452802 20.625 22.5 C19.41486716 20.07973432 18.23248037 17.98141508 16.75 15.75 C16.38519531 15.17378906 16.02039063 14.59757812 15.64453125 14.00390625 C14.11542109 11.61849441 12.63348565 9.50848565 10.625 7.5 C7.35588829 6.99905553 4.05316793 7.08334748 0.75 7.0625 C-0.16136719 7.02962891 -1.07273437 6.99675781 -2.01171875 6.96289062 C-7.42839128 6.83548409 -7.42839128 6.83548409 -11.8046875 9.71875 Z " fill="#0A324B" transform="translate(99.375,73.5)"/>
<path d="M0 0 C1.04027344 -0.01933594 2.08054687 -0.03867188 3.15234375 -0.05859375 C6.74203785 0.55334068 7.93364946 1.51866637 10.0625 4.4375 C10.0625 5.7575 10.0625 7.0775 10.0625 8.4375 C10.7225 8.4375 11.3825 8.4375 12.0625 8.4375 C12.63561035 13.02238279 12.24456691 15.88555691 9.8125 19.875 C7.69095894 22.45620829 6.45029417 23.33101553 3.203125 24.22265625 C-1.13699799 24.51955521 -4.47000049 24.52725427 -8.046875 21.87109375 C-10.74307159 18.59072123 -12.25989439 15.7248576 -12.3125 11.4375 C-12.18875 10.4475 -12.065 9.4575 -11.9375 8.4375 C-11.2775 8.4375 -10.6175 8.4375 -9.9375 8.4375 C-9.834375 7.674375 -9.73125 6.91125 -9.625 6.125 C-8.21143828 0.59925872 -5.40984407 0.00668708 0 0 Z " fill="#13384B" transform="translate(99.9375,87.5625)"/>
<path d="M0 0 C4.875 0.875 4.875 0.875 6 2 C6.1875 4.4375 6.1875 4.4375 6 7 C5.34 7.66 4.68 8.32 4 9 C1.375 8.625 1.375 8.625 -1 8 C-1.625 5.6875 -1.625 5.6875 -2 3 C-1.34 2.01 -0.68 1.02 0 0 Z " fill="#F1D04B" transform="translate(98,95)"/>
</svg>
