<?xml version="1.0" encoding="UTF-8"?>
<svg version="1.1" xmlns="http://www.w3.org/2000/svg" width="200" height="200">
<path d="M0 0 C1.77502938 0.71988344 3.55010571 1.43965418 5.3261261 2.15708923 C6.64148541 2.68900946 7.95615202 3.22264525 9.27018738 3.75782776 C15.42326868 6.25984668 21.60717081 8.68006039 27.796875 11.08984375 C28.82015396 11.48841583 29.84343292 11.88698792 30.89772034 12.29763794 C35.0384179 13.90985781 39.17948133 15.52113576 43.32077026 17.13183594 C46.24981533 18.27201826 49.17774629 19.41502029 52.10546875 20.55859375 C52.97641174 20.89680649 53.84735474 21.23501923 54.74468994 21.58348083 C58.89445486 23.20635168 63.02433511 24.87146803 67.12231445 26.62133789 C67.85617874 26.93381973 68.59004303 27.24630157 69.34614563 27.56825256 C71.0625 28.5 71.0625 28.5 72.0625 30.5 C72.41023917 34.26331057 72.43324745 38.03522628 72.5 41.8125 C72.54576172 42.85857422 72.59152344 43.90464844 72.63867188 44.98242188 C72.74978712 52.57207644 72.74978712 52.57207644 70.69580078 55.34521484 C69.03515625 56.73046875 69.03515625 56.73046875 66.0625 58.5 C67.2690625 59.4590625 67.2690625 59.4590625 68.5 60.4375 C71.0625 62.5 71.0625 62.5 72.0625 63.5 C72.39939464 67.21991388 72.38763335 70.95430151 72.4375 74.6875 C72.49357422 76.25081055 72.49357422 76.25081055 72.55078125 77.84570312 C72.64984673 86.50292531 72.64984673 86.50292531 69.5390625 90.23828125 C68.31316406 91.35783203 68.31316406 91.35783203 67.0625 92.5 C67.87332031 92.92410156 68.68414062 93.34820312 69.51953125 93.78515625 C73.49303586 98.02722338 72.82981197 102.33331176 72.75 107.9375 C72.77771484 108.97455078 72.80542969 110.01160156 72.83398438 111.08007812 C72.81864941 115.85538631 72.8023103 118.57993136 69.75390625 122.37109375 C68.09887695 123.44458008 68.09887695 123.44458008 66.0625 124.5 C65.23387451 124.93401123 64.40524902 125.36802246 63.55151367 125.81518555 C60.50176861 127.32633462 57.41875011 128.73379527 54.3125 130.125 C53.17014893 130.64425049 52.02779785 131.16350098 50.85083008 131.69848633 C39.69697809 136.73509392 28.42851054 141.49558401 17.13720703 146.21386719 C0.00513093 153.30414892 0.00513093 153.30414892 -16.66015625 161.40625 C-22.51145838 164.21648087 -29.25858456 164.57026843 -35.48364258 162.75927734 C-42.07711457 160.2576857 -48.58427302 157.59846505 -55.0625 154.8125 C-63.46231101 151.22346694 -71.88098885 147.68713673 -80.328125 144.2109375 C-81.23186859 143.83851425 -82.13561218 143.466091 -83.06674194 143.0823822 C-88.52766988 140.83223438 -88.52766988 140.83223438 -93.99224854 138.5909729 C-122.79728655 126.80223076 -122.79728655 126.80223076 -125.9375 122.5 C-126.60579763 118.55276998 -126.44685639 114.56001775 -126.4375 110.5625 C-126.46585937 109.46486328 -126.49421875 108.36722656 -126.5234375 107.23632812 C-126.5431505 99.15892532 -126.5431505 99.15892532 -123.40625 95.74609375 C-122.5915625 95.33488281 -121.776875 94.92367187 -120.9375 94.5 C-121.74832031 94.0978125 -122.55914062 93.695625 -123.39453125 93.28125 C-127.50239762 88.78846835 -126.70123561 83.86682718 -126.625 78 C-126.65271484 76.85917969 -126.68042969 75.71835938 -126.70898438 74.54296875 C-126.68507109 66.40288657 -126.68507109 66.40288657 -124.55322266 63.828125 C-122.89453125 62.71875 -122.89453125 62.71875 -119.9375 61.5 C-121.40509766 60.63761719 -121.40509766 60.63761719 -122.90234375 59.7578125 C-125.18605298 57.85102616 -125.86814776 56.83361357 -126.48095703 53.88574219 C-126.63723966 50.69716391 -126.60760732 47.56546255 -126.5 44.375 C-126.49806641 43.27800781 -126.49613281 42.18101563 -126.49414062 41.05078125 C-126.36244597 33.10032599 -126.36244597 33.10032599 -124.73901367 30.80688477 C-122.46575475 29.15777852 -120.23341162 28.2305629 -117.609375 27.22265625 C-116.51568604 26.79791016 -115.42199707 26.37316406 -114.29516602 25.93554688 C-113.10463623 25.48244141 -111.91410645 25.02933594 -110.6875 24.5625 C-109.43192835 24.07820426 -108.17664395 23.59316323 -106.92163086 23.10742188 C-104.27533876 22.08455476 -101.62735912 21.06623684 -98.97802734 20.05126953 C-95.04954975 18.54516998 -91.12755923 17.02274744 -87.20703125 15.49609375 C-81.40989867 13.23974129 -75.60810708 10.99579481 -69.80253601 8.76124573 C-65.82852701 7.23113483 -61.85808139 5.69217731 -57.8898468 4.14715576 C-55.26415885 3.12676798 -52.63581945 2.11334579 -50.00680542 1.1015625 C-48.18612864 0.39860168 -46.3685173 -0.3122828 -44.55102539 -1.0234375 C-28.01879342 -7.36097205 -16.44949397 -6.87620995 0 0 Z " fill="#A42122" transform="translate(126.9375,21.5)"/>
<path d="M0 0 C1.77502938 0.71988344 3.55010571 1.43965418 5.3261261 2.15708923 C6.64148541 2.68900946 7.95615202 3.22264525 9.27018738 3.75782776 C15.42326868 6.25984668 21.60717081 8.68006039 27.796875 11.08984375 C28.82015396 11.48841583 29.84343292 11.88698792 30.89772034 12.29763794 C35.0384179 13.90985781 39.17948133 15.52113576 43.32077026 17.13183594 C46.24981533 18.27201826 49.17774629 19.41502029 52.10546875 20.55859375 C52.97641174 20.89680649 53.84735474 21.23501923 54.74468994 21.58348083 C57.19053575 22.53999088 59.626779 23.51804224 62.0625 24.5 C63.3414061 24.99187302 63.3414061 24.99187302 64.64614868 25.49368286 C65.46328339 25.82455902 66.28041809 26.15543518 67.12231445 26.49633789 C67.85617874 26.78561661 68.59004303 27.07489532 69.34614563 27.37294006 C71.0625 28.5 71.0625 28.5 71.8087616 30.62522888 C71.93436211 31.55324059 71.93436211 31.55324059 72.0625 32.5 C67.49413018 36.63985818 62.95497962 39.29678614 57.375 41.875 C56.48852783 42.29144775 55.60205566 42.70789551 54.6887207 43.13696289 C44.29605605 47.95628518 33.73473054 52.39674788 23.19140625 56.87353516 C13.22010097 61.11247535 3.33276245 65.48979471 -6.47973633 70.08764648 C-8.19715629 70.88946683 -9.91900558 71.68189706 -11.64599609 72.46289062 C-13.0614334 73.10350192 -14.46792514 73.76487541 -15.85791016 74.45898438 C-23.15172314 77.76402348 -31.60610126 77.76475035 -39.21337891 75.54345703 C-42.62881971 74.17240077 -45.93215123 72.65516934 -49.25 71.0625 C-51.1759968 70.1754356 -53.10651825 69.29879326 -55.03765869 68.42298889 C-56.42118721 67.79546738 -57.80344855 67.16514549 -59.18450928 66.5322113 C-64.88373543 63.93299391 -70.64596068 61.50883391 -76.44140625 59.1328125 C-77.34121719 58.76371262 -78.24102814 58.39461273 -79.16810608 58.014328 C-82.75015197 56.54785123 -86.33363905 55.08500437 -89.91983032 53.62869263 C-98.72431455 50.04834335 -107.45318643 46.3897203 -115.9765625 42.17578125 C-116.63909027 41.85095261 -117.30161804 41.52612396 -117.98422241 41.19145203 C-123.8648507 38.21554121 -123.8648507 38.21554121 -125.9375 35.5 C-125.9375 33.5 -125.9375 33.5 -124.9375 31.5 C-121.33571362 29.06846912 -117.59948455 27.45468961 -113.5625 25.875 C-112.60017456 25.49649902 -112.60017456 25.49649902 -111.6184082 25.11035156 C-110.18112589 24.54584278 -108.74300767 23.98345912 -107.30419922 23.42285156 C-104.78539185 22.44068818 -102.26951055 21.45127464 -99.75390625 20.4609375 C-86.2700528 15.15975617 -72.7586825 9.92987366 -59.22460938 4.75830078 C-57.00343443 3.90803818 -54.78340835 3.05476922 -52.56445312 2.19873047 C-49.29559615 0.93800774 -46.02325212 -0.31324031 -42.75 -1.5625 C-41.76459229 -1.94470703 -40.77918457 -2.32691406 -39.76391602 -2.72070312 C-25.44135546 -8.15223866 -13.88907396 -5.80590435 0 0 Z " fill="#D73028" transform="translate(126.9375,21.5)"/>
<path d="M0 0 C0.1748936 3.39517814 0.28103765 6.78919487 0.375 10.1875 C0.42527344 11.14720703 0.47554687 12.10691406 0.52734375 13.09570312 C0.67417775 20.16820732 0.67417775 20.16820732 -2.2890625 23.82421875 C-7.10588098 26.99183888 -12.50342736 29.27520317 -17.75 31.625 C-18.89235107 32.14425049 -20.03470215 32.66350098 -21.21166992 33.19848633 C-32.36552191 38.23509392 -43.63398946 42.99558401 -54.92529297 47.71386719 C-72.05736907 54.80414892 -72.05736907 54.80414892 -88.72265625 62.90625 C-94.57395838 65.71648087 -101.32108456 66.07026843 -107.54614258 64.25927734 C-114.13961457 61.7576857 -120.64677302 59.09846505 -127.125 56.3125 C-135.52481101 52.72346694 -143.94348885 49.18713673 -152.390625 45.7109375 C-153.29436859 45.33851425 -154.19811218 44.966091 -155.12924194 44.5823822 C-160.59016988 42.33223438 -160.59016988 42.33223438 -166.05474854 40.0909729 C-194.81263012 28.32152999 -194.81263012 28.32152999 -198 24 C-198.34057617 21.73168945 -198.34057617 21.73168945 -198.29296875 19.11328125 C-198.28330078 18.17548828 -198.27363281 17.23769531 -198.26367188 16.27148438 C-198.23853516 15.29501953 -198.21339844 14.31855469 -198.1875 13.3125 C-198.17396484 12.32443359 -198.16042969 11.33636719 -198.14648438 10.31835938 C-198.11112203 7.87835769 -198.06177033 5.43945281 -198 3 C-197.43474609 3.36351563 -196.86949219 3.72703125 -196.28710938 4.1015625 C-189.29854635 8.45893993 -182.07244309 11.78796596 -174.5 15 C-173.19890502 15.55775344 -171.89796471 16.11586779 -170.59716797 16.67431641 C-159.10647606 21.59115454 -147.54985968 26.35255327 -135.97460938 31.06640625 C-134.63148103 31.61451132 -133.2883817 32.1626875 -131.9453125 32.7109375 C-131.29300659 32.97612183 -130.64070068 33.24130615 -129.96862793 33.51452637 C-126.51292566 34.92961282 -123.09062657 36.39711188 -119.69140625 37.94335938 C-118.98039764 38.26454742 -118.26938904 38.58573547 -117.53683472 38.91665649 C-116.18878548 39.52930244 -114.84460294 40.15056532 -113.50540161 40.78231812 C-106.31677508 44.04484771 -98.90313064 44.77493515 -91.42236328 42.06689453 C-88.25312085 40.76930602 -85.12498815 39.40085676 -82 38 C-80.86111328 37.49017578 -79.72222656 36.98035156 -78.54882812 36.45507812 C-75.47276691 35.0669155 -72.40097195 33.67010541 -69.33132935 32.26785278 C-58.6347522 27.38602208 -47.90254781 22.61856695 -37.0625 18.0625 C-35.46535156 17.38997192 -35.46535156 17.38997192 -33.8359375 16.70385742 C-30.04823422 15.11165228 -26.25984839 13.5214002 -22.46337891 11.95019531 C-16.92674988 9.6563997 -4.56138001 0 0 0 Z " fill="#A42121" transform="translate(199,120)"/>
<path d="M0 0 C0.33 0 0.66 0 1 0 C1.1748936 3.39517814 1.28103765 6.78919487 1.375 10.1875 C1.42527344 11.14720703 1.47554687 12.10691406 1.52734375 13.09570312 C1.67476833 20.19665377 1.67476833 20.19665377 -1.48046875 23.953125 C-5.26647739 26.44324776 -9.45244833 28.00794176 -13.6875 29.5625 C-21.86461852 32.69998341 -29.88599341 36.09839679 -37.875 39.6875 C-45.2706037 43.00624517 -52.67107201 46.30676793 -60.11328125 49.51953125 C-61.12672607 49.95708992 -61.12672607 49.95708992 -62.16064453 50.40348816 C-65.4393728 51.81777929 -68.71970338 53.22826128 -72.00146484 54.63549805 C-79.38329196 57.81101558 -79.38329196 57.81101558 -86.61328125 61.3125 C-93.34670379 64.66756175 -100.75360812 65.56115544 -108.07000732 63.3840332 C-113.82003145 61.31166912 -119.3696338 58.76182131 -124.9375 56.25 C-126.71281454 55.46863258 -128.48919548 54.68968389 -130.26660156 53.91308594 C-133.83017449 52.35483501 -137.38969577 50.78785063 -140.94677734 49.21484375 C-147.99942525 46.10861252 -155.11941514 43.17172673 -162.25 40.25 C-164.46363673 39.33877258 -166.67718393 38.4273276 -168.890625 37.515625 C-170.40571655 36.89276611 -170.40571655 36.89276611 -171.95141602 36.25732422 C-176.11505904 34.5401174 -180.27120834 32.80514124 -184.42651367 31.06787109 C-186.00928796 30.41109709 -187.59594591 29.76348293 -189.1887207 29.13134766 C-192.41108873 27.83064457 -194.85261404 26.76642388 -197 24 C-197.34057617 21.73168945 -197.34057617 21.73168945 -197.29296875 19.11328125 C-197.28330078 18.17548828 -197.27363281 17.23769531 -197.26367188 16.27148438 C-197.23853516 15.29501953 -197.21339844 14.31855469 -197.1875 13.3125 C-197.17396484 12.32443359 -197.16042969 11.33636719 -197.14648438 10.31835938 C-197.11112203 7.87835769 -197.06177033 5.43945281 -197 3 C-196.43474609 3.36351562 -195.86949219 3.72703125 -195.28710938 4.1015625 C-188.29854635 8.45893993 -181.07244309 11.78796596 -173.5 15 C-172.19890502 15.55775344 -170.89796471 16.11586779 -169.59716797 16.67431641 C-158.10647606 21.59115454 -146.54985968 26.35255327 -134.97460938 31.06640625 C-133.63148103 31.61451132 -132.2883817 32.1626875 -130.9453125 32.7109375 C-130.29300659 32.97612183 -129.64070068 33.24130615 -128.96862793 33.51452637 C-125.51292566 34.92961282 -122.09062657 36.39711188 -118.69140625 37.94335938 C-117.98039764 38.26454742 -117.26938904 38.58573547 -116.53683472 38.91665649 C-115.18878548 39.52930244 -113.84460294 40.15056532 -112.50540161 40.78231812 C-105.29677108 44.05392645 -97.8730919 44.77533391 -90.37841797 42.04492188 C-87.22587375 40.75087803 -84.11110879 39.39068426 -81 38 C-79.94425781 37.53174805 -78.88851562 37.06349609 -77.80078125 36.58105469 C-74.40396236 35.06469033 -71.01405849 33.53362509 -67.625 32 C-57.88273057 27.603767 -48.10736255 23.29531486 -38.28842163 19.07318115 C-29.08165486 15.11229937 -19.89049078 11.12502898 -10.8125 6.875 C-10.04663574 6.52083008 -9.28077148 6.16666016 -8.49169922 5.80175781 C-5.11540891 4.19654598 -2.58975414 2.66045616 0 0 Z " fill="#A42122" transform="translate(198,54)"/>
<path d="M0 0 C3.375 2 3.375 2 6 4 C5.63290577 6.5793656 5.28054311 7.74426487 3.3269043 9.52514648 C-2.61440714 13.34583823 -8.68944767 16.30923876 -15.1875 19.0625 C-16.79371216 19.75641846 -16.79371216 19.75641846 -18.43237305 20.46435547 C-20.73944543 21.46026405 -23.04817826 22.45233332 -25.35839844 23.44091797 C-31.04162849 25.87408417 -36.7136866 28.33295982 -42.3862915 30.79077148 C-44.30649211 31.62239802 -46.22719168 32.45286383 -48.14794922 33.28320312 C-57.06830626 37.1427363 -65.9501888 41.08088709 -74.80078125 45.09765625 C-75.48914063 45.40783691 -76.1775 45.71801758 -76.88671875 46.03759766 C-78.37948516 46.71741341 -79.8659375 47.41117623 -81.34765625 48.11474609 C-88.10211304 51.2641234 -93.86362688 52.43502294 -101.23706055 50.375 C-111.08087463 46.68961092 -120.7513658 42.57749708 -130.4375 38.5 C-132.36114751 37.69177066 -134.28481302 36.88358414 -136.20849609 36.07543945 C-140.94163986 34.08563635 -145.67291625 32.09143771 -150.40338135 30.09527588 C-152.79882011 29.08485939 -155.19493075 28.07605787 -157.59130859 27.06787109 C-161.43897279 25.44833052 -165.2825161 23.81929403 -169.125 22.1875 C-170.2173999 21.72730469 -171.3097998 21.26710938 -172.43530273 20.79296875 C-187.74841182 14.25158818 -187.74841182 14.25158818 -192 10 C-192 8.68 -192 7.36 -192 6 C-185.80720317 1.91275409 -185.80720317 1.91275409 -182.23974609 2.29833984 C-178.91710487 3.01795332 -176.1486467 4.06501226 -173.046875 5.44921875 C-171.88671875 5.960896 -170.7265625 6.47257324 -169.53125 6.99975586 C-168.60892578 7.41159622 -168.60892578 7.41159622 -167.66796875 7.83175659 C-164.34295735 9.31528263 -161.00750037 10.77490449 -157.671875 12.234375 C-156.97203491 12.54092514 -156.27219482 12.84747528 -155.55114746 13.16331482 C-146.03276612 17.31672046 -136.41350146 21.22686637 -126.79980469 25.15307617 C-126.12570557 25.42870895 -125.45160645 25.70434174 -124.75708008 25.98832703 C-123.43152689 26.53006285 -122.10552548 27.0707034 -120.77905273 27.61018372 C-117.53473745 28.93540584 -114.31134991 30.29373505 -111.11035156 31.72070312 C-110.48402832 31.9978566 -109.85770508 32.27501007 -109.21240234 32.56056213 C-107.50840349 33.31869262 -105.80918568 34.08754367 -104.11035156 34.85717773 C-90.48856383 39.86216897 -77.79022924 31.51639736 -65.625 26 C-54.35656155 20.91171068 -43.03851632 15.95961817 -31.65820312 11.12597656 C-26.71804945 9.02719068 -21.7858645 6.92322835 -16.90234375 4.6953125 C-16.16411377 4.36063965 -15.42588379 4.0259668 -14.6652832 3.68115234 C-12.80658532 2.83287261 -10.95373649 1.97180635 -9.1015625 1.109375 C-5.7886901 -0.07558188 -3.48843148 -0.37028044 0 0 Z " fill="#D62E26" transform="translate(193,81)"/>
<path d="M0 0 C2.875 2 2.875 2 5 4 C1.15338033 13.1613679 -11.20014019 16.50547193 -19.6875 20.0625 C-21.00676348 20.62369796 -22.32560313 21.1858932 -23.64404297 21.74902344 C-26.38360376 22.91815506 -29.12492334 24.08300538 -31.86767578 25.24462891 C-37.83333346 27.77446645 -43.77965572 30.34888923 -49.72485352 32.92636108 C-51.61240157 33.74453907 -53.50052241 34.56138489 -55.38867188 35.37817383 C-63.67690993 38.97036854 -71.93357631 42.62660282 -80.15283203 46.37402344 C-88.86719383 50.33977235 -96.9811132 51.7608262 -106.40820312 49.00292969 C-109.91905399 47.57323205 -113.33092875 46.0120127 -116.75 44.375 C-118.69799579 43.47979399 -120.65034731 42.59458495 -122.60305786 41.7097168 C-123.96414691 41.09235524 -125.32389926 40.47203871 -126.68234253 39.84887695 C-133.84838314 36.57217827 -141.13223225 33.60103872 -148.43310547 30.64016724 C-158.58474221 26.51740754 -168.72522805 22.3611477 -178.75 17.9375 C-179.90943115 17.43718262 -179.90943115 17.43718262 -181.09228516 16.92675781 C-185.72529309 14.84628696 -189.23473622 12.41597045 -193 9 C-192.8125 7.1875 -192.8125 7.1875 -192 5 C-189.58034599 3.05083427 -188.06815081 1.90386892 -184.90576172 2.18847656 C-180.69785036 3.36366538 -176.76839195 5.07546276 -172.7578125 6.796875 C-171.84901337 7.18241043 -170.94021423 7.56794586 -170.00387573 7.96516418 C-167.04241722 9.22251169 -164.08374601 10.48628451 -161.125 11.75 C-159.090068 12.61502968 -157.05491045 13.47952895 -155.01953125 14.34350586 C-150.93973292 16.07551524 -146.86072584 17.80936768 -142.78222656 19.54443359 C-135.52137655 22.63084216 -128.24875121 25.68890732 -120.97161865 28.73669434 C-119.04082558 29.54540035 -117.11046522 30.3551318 -115.18017578 31.16503906 C-101.40720041 37.42062243 -101.40720041 37.42062243 -86.74609375 35.890625 C-83.33305169 34.40317193 -79.97009603 32.84472551 -76.61279297 31.23681641 C-71.34227164 28.74191255 -66.00905401 26.38352652 -60.6875 24 C-59.46374584 23.44930756 -58.24003219 22.89852508 -57.01635742 22.34765625 C-45.18345952 17.03194383 -33.26144347 11.9275938 -21.32495117 6.84960938 C-20.59951111 6.54061203 -19.87407104 6.23161469 -19.12664795 5.91325378 C-17.76791557 5.33480987 -16.40869366 4.7575139 -15.04888916 4.18159485 C-12.57552222 3.12907605 -10.13332465 2.06887743 -7.74438477 0.8347168 C-5.01521077 -0.47123784 -2.97797525 -0.36465003 0 0 Z " fill="#D62E26" transform="translate(194,114)"/>
<path d="M0 0 C1.93056902 1.18726631 3.78885646 2.41585392 5.6171875 3.75390625 C5.6171875 6.50390625 5.6171875 6.50390625 4.6171875 9.75390625 C2.15103276 11.59027923 -0.51378553 12.68228327 -3.3828125 13.75390625 C-4.2903125 14.11484375 -5.1978125 14.47578125 -6.1328125 14.84765625 C-10.02667718 15.93344544 -13.68772784 16.05557679 -17.6953125 16.00390625 C-18.4478833 15.99713867 -19.2004541 15.99037109 -19.97583008 15.98339844 C-29.33169365 15.80944875 -36.47447462 14.66224413 -43.3828125 7.75390625 C-43.4453125 5.37890625 -43.4453125 5.37890625 -42.3828125 2.75390625 C-31.20006628 -5.07401611 -12.29406311 -6.42919038 0 0 Z " fill="#FDF9F9" transform="translate(78.3828125,49.24609375)"/>
<path d="M0 0 C0.83063965 0.31727051 1.6612793 0.63454102 2.51708984 0.96142578 C3.32355957 1.2861084 4.1300293 1.61079102 4.9609375 1.9453125 C5.84394531 2.29980469 6.72695312 2.65429688 7.63671875 3.01953125 C8.54035156 3.38433594 9.44398438 3.74914063 10.375 4.125 C11.30183594 4.49753906 12.22867188 4.87007812 13.18359375 5.25390625 C15.45636629 6.16770139 17.72847583 7.08310707 20 8 C20 8.66 20 9.32 20 10 C16.29265349 11.46085075 12.58395204 12.91823088 8.875 14.375 C7.82828125 14.7875 6.7815625 15.2 5.703125 15.625 C4.68476563 16.02460937 3.66640625 16.42421875 2.6171875 16.8359375 C1.21895752 17.38580322 1.21895752 17.38580322 -0.20751953 17.94677734 C-1.12903809 18.29434082 -2.05055664 18.6419043 -3 19 C-3.98097656 19.41572266 -4.96195313 19.83144531 -5.97265625 20.25976562 C-9.78588896 21.19216253 -11.46766434 20.52397693 -15.0546875 19.0078125 C-16.16328125 18.55019531 -17.271875 18.09257813 -18.4140625 17.62109375 C-19.55617187 17.12738281 -20.69828125 16.63367188 -21.875 16.125 C-23.0403125 15.63902344 -24.205625 15.15304688 -25.40625 14.65234375 C-28.27841487 13.45168466 -31.14200337 12.23391863 -34 11 C-34 10.34 -34 9.68 -34 9 C-30.13191889 7.37233833 -26.25451158 5.77018418 -22.36669922 4.19042969 C-21.04682658 3.65005525 -19.7296994 3.1029221 -18.41552734 2.54882812 C-16.52089703 1.75139099 -14.61757383 0.97914884 -12.7109375 0.2109375 C-10.99849854 -0.49603271 -10.99849854 -0.49603271 -9.25146484 -1.21728516 C-5.34110973 -2.15861257 -3.64301494 -1.58766529 0 0 Z " fill="#AD2523" transform="translate(151,45)"/>
<path d="M0 0 C-1.41839975 4.04942104 -3.37511264 7.13166851 -5.9375 10.5625 C-6.62714844 11.49191406 -7.31679687 12.42132813 -8.02734375 13.37890625 C-8.67832031 14.24386719 -9.32929687 15.10882813 -10 16 C-10.57878906 16.77214844 -11.15757813 17.54429688 -11.75390625 18.33984375 C-12.16511719 18.88769531 -12.57632813 19.43554688 -13 20 C-17.01290529 19.34794344 -20.44372879 18.0955448 -24.17578125 16.49609375 C-25.33271484 16.00302734 -26.48964844 15.50996094 -27.68164062 15.00195312 C-28.87982422 14.48568359 -30.07800781 13.96941406 -31.3125 13.4375 C-32.54213081 12.9116721 -33.77194678 12.38627697 -35.00195312 11.86132812 C-38.00315052 10.57846336 -41.00238815 9.29121552 -44 8 C-40.97109222 4.97109222 -37.21443892 5.06828443 -33.125 4.4921875 C-31.80459717 4.29666794 -31.80459717 4.29666794 -30.45751953 4.09719849 C-27.63942295 3.68202132 -24.81977833 3.27857957 -22 2.875 C-20.09885115 2.5957809 -18.19780788 2.31584189 -16.296875 2.03515625 C-2.41394382 0 -2.41394382 0 0 0 Z " fill="#FDF5F5" transform="translate(117,65)"/>
<path d="M0 0 C0.59167969 0.20496094 1.18335937 0.40992187 1.79296875 0.62109375 C4.18809475 1.43770278 6.59253765 2.22063507 9 3 C9.845625 3.28875 10.69125 3.5775 11.5625 3.875 C14.82059745 4.04208192 17.16949713 2.97704696 20.1328125 1.69140625 C22 1 22 1 25 1 C24.67 3.64 24.34 6.28 24 9 C27.3 10.32 30.6 11.64 34 13 C34 13.33 34 13.66 34 14 C32.96359375 14.0515625 31.9271875 14.103125 30.859375 14.15625 C23.34923474 14.41665498 23.34923474 14.41665498 17.11328125 17.9140625 C16.14755145 19.94604417 15.45540283 21.79973914 15 24 C12.83646568 22.05281911 11.76110571 20.53960663 10.390625 17.8984375 C7.81508277 14.77580297 7.4246568 14.54626571 3.671875 13.9765625 C2.03350393 13.83122313 0.39235087 13.71481606 -1.25 13.625 C-2.09046875 13.55667969 -2.9309375 13.48835938 -3.796875 13.41796875 C-5.86274626 13.25363808 -7.93128284 13.12344197 -10 13 C-7.53698577 10.53698577 -5.72639964 10.23233479 -2.375 9.375 C-0.87066406 8.98441406 -0.87066406 8.98441406 0.6640625 8.5859375 C1.43492188 8.39257812 2.20578125 8.19921875 3 8 C2.505 7.05125 2.01 6.1025 1.5 5.125 C0 2 0 2 0 0 Z " fill="#FDF6F6" transform="translate(90,27)"/>
<path d="M0 0 C8.60946551 2.38415968 16.75345451 5.60242326 25 9 C25 9.66 25 10.32 25 11 C21.21048756 12.50548369 17.41804969 14.00345314 13.625 15.5 C12.00464844 16.14388672 12.00464844 16.14388672 10.3515625 16.80078125 C8.8046875 17.40986328 8.8046875 17.40986328 7.2265625 18.03125 C6.27346191 18.40830078 5.32036133 18.78535156 4.33837891 19.17382812 C2 20 2 20 0 20 C0 13.4 0 6.8 0 0 Z " fill="#7A1514" transform="translate(146,44)"/>
</svg>
