<?xml version="1.0" encoding="UTF-8"?>
<svg version="1.1" xmlns="http://www.w3.org/2000/svg" width="1400" height="1225">
<path d="M0 0 C462 0 924 0 1400 0 C1400 404.25 1400 808.5 1400 1225 C938 1225 476 1225 0 1225 C0 820.75 0 416.5 0 0 Z " fill="#000000" transform="translate(0,0)"/>
<path d="M0 0 C3.26275969 1.60253423 5.23017874 3.95024374 7.375 6.875 C8.64520796 11.19370705 8.51481701 14.78617294 6.75990158 18.92388362 C4.95620311 22.0765522 3.09289023 24.280968 0.52907467 26.84286213 C-0.39179812 27.77032476 -1.3126709 28.69778739 -2.26144892 29.65335494 C-3.28476529 30.66880415 -4.30822146 31.6841125 -5.33180237 32.69929504 C-6.41842786 33.78794553 -7.50439535 34.87725312 -8.5897612 35.96715945 C-11.57101787 38.95706099 -14.56154885 41.93753256 -17.55368507 44.91654098 C-20.77997455 48.13193194 -23.99760083 51.35597173 -27.21630859 54.57894897 C-33.52102658 60.88930086 -39.83368898 67.19164755 -46.14902181 73.49137423 C-53.49869182 80.82351517 -60.84030636 88.16369976 -68.18154453 95.50428136 C-81.27569176 108.59674048 -94.37688959 121.68212127 -107.48217773 134.76342773 C-120.20898433 147.46696202 -132.93122318 160.17504647 -145.64819336 172.88842773 C-146.43185422 173.67186583 -147.21551508 174.45530392 -148.02292324 175.26248256 C-149.6015431 176.84065983 -151.18016267 178.41883738 -152.75878197 179.99701522 C-153.5374388 180.77545248 -154.31609563 181.55388975 -155.11834812 182.35591602 C-155.89499519 183.1323471 -156.67164226 183.90877819 -157.47182408 184.70873748 C-169.57934339 196.81255941 -181.6906919 208.91254928 -193.8025709 221.0120084 C-198.19758687 225.40258441 -202.59210088 229.79366211 -206.98627014 234.18508551 C-213.95333071 241.14772038 -220.92204823 248.10868779 -227.89419193 255.0662329 C-231.08143981 258.24685901 -234.26789892 261.42826459 -237.45223045 264.61181068 C-240.36324158 267.52203814 -243.2765364 270.42995835 -246.19173264 273.33599337 C-247.24974112 274.39148205 -248.3068995 275.44782363 -249.36315102 276.50507054 C-250.79144834 277.93445443 -252.22308353 279.36050072 -253.65491581 280.78634357 C-254.45146173 281.58164299 -255.24800764 282.37694241 -256.06869131 283.19634181 C-259.80222631 286.68310756 -263.29847125 286.39290393 -268.23046875 286.34765625 C-272.62066745 285.79655937 -274.12122472 284.32166378 -277 281 C-279.28466838 277.05375462 -279.47409741 273.50392543 -279 269 C-276.55894305 264.89578445 -273.79017688 261.5403649 -270.42164421 258.17275524 C-269.50226377 257.24877601 -268.58288334 256.32479678 -267.63564289 255.37281817 C-266.61915465 254.3613442 -265.60257266 253.34996444 -264.58590698 252.33866882 C-263.5027572 251.25392995 -262.42004542 250.16875357 -261.33773339 249.08317882 C-258.367904 246.10694466 -255.39188001 243.13697334 -252.4147923 240.16800201 C-249.20328041 236.96307388 -245.9975425 233.75237932 -242.79107666 230.54240417 C-236.51187144 224.25815952 -230.22734197 217.97926546 -223.94099151 211.70216932 C-216.62451189 204.3960739 -209.31326241 197.08475404 -202.00221659 189.77322183 C-188.96213222 176.73263692 -175.91722365 163.69688847 -162.86962891 150.66381836 C-150.19933038 138.00761722 -137.53254947 125.34790926 -124.86962891 112.68432617 C-124.08921777 111.90387507 -123.30880662 111.12342398 -122.50474666 110.31932285 C-121.72570339 109.54023922 -120.94666012 108.76115559 -120.14400947 107.95846337 C-105.73723492 93.5509997 -91.32717617 79.14682482 -76.91557857 64.74418568 C-71.81314097 59.64476876 -66.71168444 54.54437161 -61.61053085 49.44367027 C-55.39988867 43.23370892 -49.18736742 37.02563439 -42.97246467 30.81993689 C-39.79937358 27.65147468 -36.62708659 24.4822183 -33.45693588 21.3108139 C-30.55891026 18.41169775 -27.65860734 15.51488095 -24.75641228 12.61993883 C-23.70314171 11.56848982 -22.65072373 10.51618596 -21.59921537 9.46297463 C-20.17732668 8.03903711 -18.75209864 6.61843642 -17.32667351 5.19803905 C-16.53370743 4.4057774 -15.74074135 3.61351574 -14.92374599 2.79724616 C-10.69215642 -1.15608663 -5.50839192 -0.6992317 0 0 Z " fill="#FEFEFE" transform="translate(815,449)"/>
<path d="M0 0 C3.98680167 2.06723049 6.61569183 4.21516697 9 8 C9.43359375 10.3671875 9.43359375 10.3671875 9.4375 12.875 C9.45683594 13.69742188 9.47617187 14.51984375 9.49609375 15.3671875 C8.35783839 21.4080073 3.53681038 25.75446884 -0.68638611 29.94708252 C-1.53151625 30.79795098 -1.53151625 30.79795098 -2.39371973 31.66600871 C-4.27200457 33.55456495 -6.15730925 35.43594725 -8.04272461 37.31738281 C-9.39519785 38.67420563 -10.74725329 40.03144503 -12.09892273 41.3890686 C-15.76355347 45.06707064 -19.43454424 48.7386611 -23.10713267 52.40871525 C-26.1732434 55.4737555 -29.23637078 58.5417687 -32.29955012 61.60973811 C-39.52409472 68.84537034 -46.75394593 76.07566997 -53.98706055 83.30273438 C-61.4507381 90.76036493 -68.90517588 98.22714114 -76.35518259 105.69842649 C-82.75328129 112.11412696 -89.15715686 118.52402057 -95.56569105 124.92929721 C-99.39269119 128.75448288 -103.21742318 132.58186947 -107.03657341 136.4148941 C-110.62580837 140.01668037 -114.22219118 143.61117156 -117.82423592 147.20014572 C-119.14544637 148.51898539 -120.46409778 149.84039437 -121.77999878 151.16453171 C-123.57536388 152.97032255 -125.37970584 154.76663862 -127.18663025 156.56085205 C-127.70628843 157.08788451 -128.22594661 157.61491698 -128.761352 158.15792012 C-132.76803673 162.10545998 -135.87397128 163.76806959 -141.4375 164.375 C-146.46852414 163.84541851 -149.1842004 161.69057204 -152.8125 158.3125 C-154.67601511 154.68354952 -155.58325215 151.05846284 -155 147 C-150.64457882 138.53397546 -143.70435716 132.28957072 -137.02734375 125.6550293 C-135.69420518 124.31946016 -134.36171273 122.98324583 -133.02981567 121.6464386 C-129.42520546 118.03245442 -125.81129652 114.42790538 -122.19533157 110.82528663 C-118.40789427 107.0491952 -114.62820369 103.26536346 -110.84741211 99.48262024 C-104.5008034 93.13512982 -98.14825274 86.79363489 -91.79199219 80.45581055 C-84.44484603 73.12985287 -77.10659154 65.79508179 -69.77315044 58.45540684 C-62.71228671 51.38884865 -55.64576652 44.32797445 -48.57644653 37.26987648 C-45.57003268 34.26810517 -42.56550912 31.26446042 -39.56246948 28.25931358 C-36.02780453 24.72276494 -32.48818206 21.1912535 -28.94466782 17.66357231 C-27.64530846 16.3684545 -26.34763947 15.07163825 -25.05179214 13.77300644 C-23.28268236 12.00067245 -21.50753408 10.23461464 -19.73071289 8.47001648 C-18.96392165 7.69755625 -18.96392165 7.69755625 -18.18163967 6.90949076 C-12.48625442 1.2832184 -7.99264413 -1.28277005 0 0 Z " fill="#FBFBFB" transform="translate(841,599)"/>
</svg>
