<?xml version="1.0" encoding="UTF-8"?>
<svg version="1.1" xmlns="http://www.w3.org/2000/svg" width="200" height="200">
<path d="M0 0 C0.96992386 -0.00846954 1.93984772 -0.01693909 2.93916321 -0.02566528 C6.1376364 -0.04901538 9.33562778 -0.05005768 12.53417969 -0.04882812 C14.76609488 -0.0559323 16.99800825 -0.06363167 19.22991943 -0.07189941 C23.90707473 -0.08534073 28.58406127 -0.08691513 33.26123047 -0.08105469 C39.23758428 -0.07516755 45.21312323 -0.10571177 51.18931961 -0.14617157 C55.79976723 -0.17210077 60.41002022 -0.17492105 65.0205307 -0.17127991 C67.22282708 -0.17296712 69.42513283 -0.18257102 71.62735748 -0.20042419 C74.71695923 -0.2227102 77.80493217 -0.21286152 80.89453125 -0.1953125 C81.79357681 -0.20857574 82.69262238 -0.22183899 83.61891174 -0.23550415 C90.97186991 -0.13909832 97.46234017 2.07968941 103.02106094 7.03931427 C107.44615804 11.75763074 110.37827366 17.65870617 113.45605469 23.29492188 C114.60330267 25.36068711 115.75174952 27.42578696 116.90136719 29.49023438 C117.74296387 31.00665527 117.74296387 31.00665527 118.6015625 32.55371094 C120.78823978 36.45991777 123.04802441 40.31951139 125.33105469 44.16992188 C125.67326553 44.76514145 126.01547638 45.36036102 126.36805725 45.97361755 C128.44968085 49.56383786 130.59836056 53.0169544 133.02905273 56.38208008 C142.61304426 70.22725618 143.15026732 83.38443456 142.89355469 99.85742188 C142.88820709 101.14439972 142.8828595 102.43137756 142.87734985 103.75735474 C142.70242028 124.30829831 140.26576408 138.55138984 127.2578125 154.77246094 C124.11348414 158.8297071 121.7301753 163.24159708 119.26855469 167.73242188 C118.40484947 169.22478442 117.53653862 170.71449334 116.66308594 172.20117188 C115.01391474 175.02275506 113.38971494 177.85675966 111.78027344 180.70117188 C106.51940565 189.89650065 101.77338674 197.11294017 91.20605469 200.41992188 C87.8951043 200.84646338 84.61786068 200.85064233 81.28271484 200.83984375 C80.31103867 200.84831329 79.33936249 200.85678284 78.33824158 200.86550903 C75.14039866 200.88882251 71.94303851 200.88990249 68.74511719 200.88867188 C66.51223561 200.89577698 64.27935585 200.90347649 62.04647827 200.91174316 C57.37110313 200.92517513 52.69589682 200.92676251 48.02050781 200.92089844 C42.04296397 200.91500453 36.06623292 200.94558803 30.08884621 200.98601532 C25.47844107 201.0119239 20.8682308 201.01476681 16.25776291 201.01112366 C14.05464003 201.01281202 11.85150786 201.02242701 9.64845657 201.04026794 C6.56115295 201.06251894 3.47548386 201.05272372 0.38818359 201.03515625 C-0.5128862 201.04841949 -1.41395599 201.06168274 -2.34233093 201.0753479 C-9.55288225 200.98049633 -15.21822541 198.74597357 -20.54088402 193.79496002 C-24.94531635 189.07212592 -27.9978059 183.31346146 -31.16894531 177.73242188 C-31.7611084 176.70383057 -32.35327148 175.67523926 -32.96337891 174.61547852 C-34.5720469 171.8171493 -36.17388072 169.01505474 -37.7722168 166.21081543 C-39.18736571 163.73033159 -40.60753706 161.252737 -42.02755737 158.77503967 C-45.725138 152.32316614 -49.41282491 145.8657227 -53.09326172 139.40405273 C-54.77752934 136.34347751 -54.77752934 136.34347751 -56.95117188 133.32788086 C-59.83306116 128.24140048 -59.5616288 122.63690768 -59.67675781 116.92773438 C-59.70430145 115.70956024 -59.73184509 114.49138611 -59.76022339 113.23629761 C-59.80671012 110.65266945 -59.84127035 108.06880298 -59.86474609 105.48486328 C-59.91796777 101.61598332 -60.0675818 97.75864085 -60.21972656 93.89257812 C-60.59436147 75.87605126 -56.5276132 63.90212259 -46.50196838 48.9899292 C-44.45433726 45.90892457 -42.59893604 42.74308237 -40.76670837 39.53086853 C-39.63536692 37.54858746 -38.47180616 35.58815403 -37.29785156 33.63085938 C-35.41851834 30.48777122 -33.58313373 27.32179315 -31.75878906 24.14648438 C-30.70828858 22.34163343 -29.65751149 20.53694345 -28.60644531 18.73242188 C-27.89367432 17.47498169 -27.89367432 17.47498169 -27.16650391 16.19213867 C-20.68397531 5.1602122 -12.8776642 -0.04160242 0 0 Z M33.20605469 37.41992188 C31.87995597 40.07211931 32.05699538 42.10532958 32.02905273 45.07543945 C32.0162175 46.26039505 32.00338226 47.44535065 31.99015808 48.66621399 C31.98277115 49.9526329 31.97538422 51.23905182 31.96777344 52.56445312 C31.95970169 53.88152756 31.95162994 55.19860199 31.9433136 56.55558777 C31.92828608 59.34735995 31.91844856 62.13910667 31.91088867 64.9309082 C31.89983092 68.50215492 31.86543913 72.07277737 31.82571697 75.6438036 C31.79324091 79.05482842 31.788771 82.46578562 31.78027344 85.87695312 C31.76276535 87.15729935 31.74525726 88.43764557 31.72721863 89.75679016 C31.7301442 90.95120224 31.73306976 92.14561432 31.73608398 93.3762207 C31.73021774 94.42497879 31.7243515 95.47373688 31.7183075 96.55427551 C32.33367545 100.16972831 33.6531865 101.83085254 36.20605469 104.41992188 C39.83898582 105.65666439 41.44797422 105.76450391 44.95605469 104.16992188 C47.4168732 102.44627419 47.4168732 102.44627419 49.20605469 99.41992188 C49.5309593 96.72702581 49.5309593 96.72702581 49.51245117 93.65087891 C49.52843857 92.46599884 49.54442596 91.28111877 49.56089783 90.06033325 C49.56626053 88.77907562 49.57162323 87.49781799 49.57714844 86.17773438 C49.58617691 84.86207489 49.59520538 83.54641541 49.60450745 82.19088745 C49.62099356 79.40506539 49.62869676 76.61936345 49.6315918 73.83349609 C49.63697392 70.26992179 49.67464558 66.70748204 49.72033596 63.14422798 C49.75729891 59.73873518 49.75862222 56.33342098 49.76464844 52.92773438 C49.78418076 51.65052521 49.80371307 50.37331604 49.82383728 49.05740356 C50.06555916 42.02506155 50.06555916 42.02506155 46.82348633 36.14208984 C41.07409829 32.35921668 38.56708084 33.15546926 33.20605469 37.41992188 Z M-5.20019531 56.16992188 C-17.31543494 71.6774286 -21.68460866 88.36781933 -19.39550781 107.80273438 C-16.23561216 124.50503998 -6.47274499 137.58988762 7.10449219 147.37695312 C19.74882095 155.70564827 35.05296819 159.44049128 50.02246094 156.72851562 C65.92185027 153.30248067 80.22228417 145.9330128 90.08105469 132.60742188 C100.22921111 116.80210246 103.76003967 100.17203049 100.14355469 81.73242188 C97.03649505 70.0556582 90.72976343 60.8225122 82.20605469 52.41992188 C81.573125 51.77667969 80.94019531 51.1334375 80.28808594 50.47070312 C77.49030851 47.82115232 75.85886514 46.54792392 72.01855469 45.79492188 C68.4889738 46.57927318 67.24682026 47.4372645 65.20605469 50.41992188 C64.45590274 53.37683897 64.45590274 53.37683897 65.20605469 56.41992188 C67.02668447 58.62549082 67.02668447 58.62549082 68.58105469 59.95898438 C77.83662676 68.28009965 84.86110592 78.88222142 85.54199219 91.61914062 C85.83009728 105.93099852 83.28591133 117.85930601 73.17089844 128.57617188 C62.71346302 138.46186038 51.50365097 141.88311483 37.34277344 141.60351562 C24.30058087 140.84014943 14.01124253 134.98548863 5.20605469 125.41992188 C-1.32005263 116.66806849 -4.37758963 107.54262432 -4.29394531 96.66992188 C-4.2882251 95.79811279 -4.28250488 94.92630371 -4.27661133 94.02807617 C-3.95676994 82.36840375 0.1617622 72.87324618 8.20605469 64.41992188 C10.03035151 62.74041051 11.87493589 61.14463644 13.82324219 59.61132812 C16.00392752 57.73248907 16.20770185 56.40729359 16.58105469 53.54492188 C16.49732014 50.27145041 16.49732014 50.27145041 14.01855469 48.04492188 C5.89490859 43.35125969 0.01259342 50.21244904 -5.20019531 56.16992188 Z " fill="#67BC44" transform="translate(58.7939453125,-0.419921875)"/>
</svg>
