<?xml version="1.0" encoding="UTF-8"?>
<svg version="1.1" xmlns="http://www.w3.org/2000/svg" width="200" height="200">
<path d="M0 0 C4.45167101 3.5594836 8.40331119 7.68343821 12.22436523 11.90380859 C17.84164269 17.9139322 24.74469876 21.2949948 33.01171875 21.87109375 C43.74707941 21.4373418 51.27300231 15.277562 58.33203125 7.77734375 C57.85747262 18.21763362 51.80333017 27.2418776 44.7421875 34.5859375 C34.46729933 43.92825884 22.61791486 46.39175375 9 46.05859375 C-7.63572 44.78301139 -19.14004836 37.04944343 -30.66796875 25.77734375 C-37.81500885 18.99160742 -44.3756656 13.13847719 -54.66796875 12.77734375 C-63.14771173 13.65186605 -70.63661869 17.10307866 -76.23046875 23.58984375 C-77.0575339 24.6410458 -77.87590844 25.6995205 -78.66796875 26.77734375 C-80.59259371 21.39342556 -77.93214299 16.71049913 -75.66796875 11.77734375 C-69.08680177 0.46970231 -58.91764598 -6.42728973 -46.43359375 -9.83203125 C-29.37871227 -12.24091281 -14.11466432 -10.25745255 0 0 Z " fill="#00B7D6" transform="translate(87.66796875,110.22265625)"/>
<path d="M0 0 C3.79293857 3.0795647 7.11981712 6.51012823 10.51171875 10.01953125 C17.84693501 17.59542711 24.50359705 22.97158932 35.4453125 23.51953125 C46.37276283 22.97401111 53.56967855 16.92298594 60.94921875 9.39453125 C60.47466012 19.83482112 54.42051767 28.8590651 47.359375 36.203125 C36.9250546 45.69040822 24.6178319 48.15767484 10.8359375 47.671875 C-4.96835813 46.54413129 -16.29473352 39.75467031 -26.9362793 28.5390625 C-34.00587676 21.15621096 -41.55971005 15.34657875 -52.11328125 15.01953125 C-59.90907796 15.10624756 -65.59095554 17.02804616 -71.22265625 22.5078125 C-72.91918789 24.41810713 -74.51918337 26.35071024 -76.05078125 28.39453125 C-76.71078125 28.06453125 -77.37078125 27.73453125 -78.05078125 27.39453125 C-74.25393219 14.19489716 -68.4719952 4.29931406 -56.6640625 -3.1796875 C-39.19770302 -12.70916614 -16.35022464 -10.95584396 0 0 Z " fill="#00B7D6" transform="translate(131.05078125,53.60546875)"/>
</svg>
