<?xml version="1.0" encoding="UTF-8"?>
<svg version="1.1" xmlns="http://www.w3.org/2000/svg" width="200" height="200">
<path d="M0 0 C0.33 0.33 0.66 0.66 1 1 C0.55102629 7.43107416 -0.73044618 13.27420408 -2.5625 19.4375 C-4.28672621 24.63808498 -4.28672621 24.63808498 -5 30 C-4.39944794 29.8850267 -3.79889587 29.77005341 -3.18014526 29.65159607 C3.07942936 28.45531836 9.34160286 27.2734496 15.60546875 26.09985352 C17.94177648 25.66017518 20.27740034 25.21684648 22.61230469 24.76977539 C25.97156768 24.127227 29.33308369 23.49791301 32.6953125 22.87109375 C33.73615997 22.66906845 34.77700745 22.46704315 35.84939575 22.25889587 C45.46436027 20.49132516 45.46436027 20.49132516 50 22 C52 25 52 25 51.953125 27.56640625 C50.59906488 32.44435232 48.22991766 36.54426968 45.75 40.9375 C44.94743774 42.38298218 44.94743774 42.38298218 44.12866211 43.85766602 C42.42923437 46.91090448 40.71627575 49.95620468 39 53 C38.46197754 53.95777344 37.92395508 54.91554687 37.36962891 55.90234375 C34.14616268 61.63907095 30.90447541 67.36528585 27.65429688 73.08691406 C17.86233029 90.32979266 8.1039928 107.58927319 -1.35668945 125.01660156 C-6.25070616 134.02870629 -11.23283853 142.97983081 -16.34570312 151.86962891 C-21.00270012 159.97383587 -25.56414327 168.13025862 -30.10498047 176.30004883 C-31.72530051 179.20661941 -33.35854625 182.10531808 -35 185 C-35.54027832 185.96067383 -36.08055664 186.92134766 -36.63720703 187.91113281 C-37.15911621 188.81573242 -37.68102539 189.72033203 -38.21875 190.65234375 C-38.67958984 191.45792725 -39.14042969 192.26351074 -39.61523438 193.09350586 C-41 195 -41 195 -44.125 196.375 C-47.88524434 195.88453335 -48.54744377 194.87790731 -51 192 C-52.70937459 189.35876139 -54.23597135 186.63181438 -55.75 183.875 C-56.16121094 183.14667969 -56.57242188 182.41835937 -56.99609375 181.66796875 C-60 176.2689213 -60 176.2689213 -60 174 C-60.66 174 -61.32 174 -62 174 C-62.83819158 172.37750059 -63.6704116 170.75191503 -64.5 169.125 C-64.9640625 168.22007812 -65.428125 167.31515625 -65.90625 166.3828125 C-67 164 -67 164 -67 162 C-67.66 161.67 -68.32 161.34 -69 161 C-70.10103609 159.22293916 -71.13403304 157.40320915 -72.125 155.5625 C-72.66382812 154.57378906 -73.20265625 153.58507812 -73.7578125 152.56640625 C-75 150 -75 150 -75 148 C-75.66 148 -76.32 148 -77 148 C-77.67154933 146.71086513 -78.33708859 145.41859796 -79 144.125 C-79.37125 143.40570313 -79.7425 142.68640625 -80.125 141.9453125 C-81 140 -81 140 -81 138 C-81.66 137.67 -82.32 137.34 -83 137 C-84.31437187 134.70576982 -85.54822429 132.4146765 -86.75 130.0625 C-89.15962819 125.42652507 -91.61728286 120.87973402 -94.375 116.4375 C-96.4699791 113.0402366 -97.82194955 109.82866396 -99 106 C-99.99 105.505 -99.99 105.505 -101 105 C-101.99454393 103.36673138 -102.92178148 101.69213018 -103.8125 100 C-104.33972656 99.01128906 -104.86695313 98.02257812 -105.41015625 97.00390625 C-105.93480469 96.01261719 -106.45945313 95.02132812 -107 94 C-107.91105312 92.30946274 -108.82715267 90.62162792 -109.75 88.9375 C-110.13671875 88.22464844 -110.5234375 87.51179688 -110.921875 86.77734375 C-111.99950086 84.84193704 -111.99950086 84.84193704 -114 83 C-114.625 80.375 -114.625 80.375 -115 78 C-115.66 78 -116.32 78 -117 78 C-117.50789063 76.96101563 -118.01578125 75.92203125 -118.5390625 74.8515625 C-121.94330063 67.93504157 -125.37332647 61.11918911 -129.43359375 54.55859375 C-132.09349027 50.21387499 -134.58977776 45.77552129 -137.09375 41.33984375 C-138.2500701 39.31391406 -139.43111199 37.30147656 -140.65625 35.31640625 C-142.79933494 31.78626912 -143.98624212 29.75668358 -144.0625 25.5625 C-143 23 -143 23 -141.28564453 21.80322266 C-138.31923176 20.76076399 -136.47390782 21.07674373 -133.3671875 21.5859375 C-132.12420898 21.78670898 -130.88123047 21.98748047 -129.60058594 22.19433594 C-128.06670341 22.46086193 -126.53321015 22.72963292 -125 23 C-124.07723267 23.1606897 -123.15446533 23.32137939 -122.20373535 23.48693848 C-114.5046282 24.83239846 -106.8145108 26.22591963 -99.125 27.625 C-96.77999059 28.04971483 -94.43493882 28.47419591 -92.08984375 28.8984375 C-86.39273807 29.92959692 -80.69616219 30.9636421 -75 32 C-74.06934291 27.64588677 -74.02561571 23.83457076 -74.2578125 19.40234375 C-73.92676211 16.31755605 -73.14443932 15.23684599 -71 13 C-68.21195984 12.02545166 -68.21195984 12.02545166 -64.7878418 11.35253906 C-63.50608566 11.09257141 -62.22432953 10.83260376 -60.9037323 10.5647583 C-59.5023256 10.29786638 -58.10081844 10.03150155 -56.69921875 9.765625 C-55.2603138 9.48114219 -53.82166189 9.19537677 -52.383255 8.90838623 C-49.36811958 8.31027259 -46.35115674 7.72294816 -43.33227539 7.14404297 C-39.47250745 6.40370918 -35.61682204 5.64432208 -31.76219463 4.87771988 C-28.79054273 4.28761309 -25.81765398 3.70396555 -22.84427834 3.122612 C-21.42277266 2.84462292 -20.00148285 2.56552758 -18.58041954 2.28528595 C-16.58821928 1.89420067 -14.59430675 1.51186885 -12.6003418 1.12988281 C-10.9018232 0.80156464 -10.9018232 0.80156464 -9.16899109 0.46661377 C-6.04828853 0.00711018 -3.14893386 -0.15818194 0 0 Z " fill="#8D72FC" transform="translate(146,0)"/>
<path d="M0 0 C0.495 0.495 0.495 0.495 1 1 C0.56068121 7.6225668 -0.83184366 13.56017289 -2.8125 19.875 C-3.08022217 20.75196533 -3.34794434 21.62893066 -3.6237793 22.5324707 C-5.04766403 27.14418258 -6.57884224 31.68126457 -8.3125 36.1875 C-10.07816781 40.81779898 -10.67616931 45.06158204 -11 50 C-9.89205078 49.80083984 -9.89205078 49.80083984 -8.76171875 49.59765625 C-1.85186083 48.39479661 5.0061957 47.52315859 12 47 C12.94949123 49.54154891 13.09464407 50.72450316 12.20048523 53.32728577 C11.76653946 54.18486984 11.33259369 55.04245392 10.88549805 55.92602539 C10.39715988 56.90547623 9.90882172 57.88492706 9.40568542 58.89405823 C8.59192192 60.47983925 8.59192192 60.47983925 7.76171875 62.09765625 C7.20692337 63.201129 6.65212799 64.30460175 6.08052063 65.44151306 C4.59523001 68.38965811 3.09959794 71.33208082 1.59893799 74.2723999 C0.11316565 77.19051528 -1.35750088 80.11622503 -2.83007812 83.04101562 C-8.25514391 93.79231922 -13.76281529 104.49404265 -19.41062927 115.12986755 C-22.45407753 120.89089032 -25.3520053 126.71579954 -28.2109375 132.5703125 C-28.63793442 133.44161301 -29.06493134 134.31291351 -29.50486755 135.21061707 C-31.24517851 138.76287834 -32.98459129 142.31532191 -34.70263672 145.87841797 C-35.98437716 148.53213564 -37.28343581 151.17673686 -38.5859375 153.8203125 C-39.16412735 155.03559128 -39.16412735 155.03559128 -39.7539978 156.27542114 C-40.3057518 157.38456375 -40.3057518 157.38456375 -40.86865234 158.51611328 C-41.34303238 159.49271408 -41.34303238 159.49271408 -41.82699585 160.48904419 C-43.35194386 162.45334163 -44.5925118 162.63598996 -47 163 C-48.12321176 158.85596753 -47.7935487 155.90494292 -46.85546875 151.73828125 C-46.59056641 150.53623047 -46.32566406 149.33417969 -46.05273438 148.09570312 C-45.76720703 146.84724609 -45.48167969 145.59878906 -45.1875 144.3125 C-44.6387843 141.85038039 -44.09059795 139.38814275 -43.54296875 136.92578125 C-43.27919434 135.74580566 -43.01541992 134.56583008 -42.74365234 133.35009766 C-42.08326805 130.37511626 -41.42709903 127.40030273 -40.80078125 124.41796875 C-40.64391846 123.67699951 -40.48705566 122.93603027 -40.32543945 122.17260742 C-39.96337124 119.75546937 -39.94507449 117.44056817 -40 115 C-44.00436976 115.61565227 -44.00436976 115.61565227 -47.9375 116.5625 C-50.96068576 117.20378183 -53.92158611 117.05920027 -57 117 C-56.38638843 110.57968525 -55.34155595 104.41596448 -53.9375 98.125 C-53.56883677 96.4615507 -53.20283273 94.79750921 -52.83984375 93.1328125 C-52.67863037 92.40980957 -52.51741699 91.68680664 -52.35131836 90.94189453 C-51.91098735 88.83689006 -51.91098735 88.83689006 -52 86 C-60.08200895 86.38270503 -60.08200895 86.38270503 -67.9375 88.125 C-71.21412372 89.06117821 -72.76058057 88.77833766 -76 88 C-76.14078493 79.60863172 -75.75328725 71.32552588 -75.14578247 62.9576416 C-74.23803685 50.37879936 -73.79479001 37.94728164 -74.16210938 25.32788086 C-74.18208984 24.28639893 -74.20207031 23.24491699 -74.22265625 22.171875 C-74.25109619 21.2653418 -74.27953613 20.35880859 -74.30883789 19.42480469 C-73.91720695 16.34996002 -73.1424034 15.23692635 -71 13 C-68.21195984 12.02545166 -68.21195984 12.02545166 -64.7878418 11.35253906 C-63.50608566 11.09257141 -62.22432953 10.83260376 -60.9037323 10.5647583 C-59.5023256 10.29786638 -58.10081844 10.03150155 -56.69921875 9.765625 C-55.2603138 9.48114219 -53.82166189 9.19537677 -52.383255 8.90838623 C-49.36811958 8.31027259 -46.35115674 7.72294816 -43.33227539 7.14404297 C-39.47250745 6.40370918 -35.61682204 5.64432208 -31.76219463 4.87771988 C-28.79054273 4.28761309 -25.81765398 3.70396555 -22.84427834 3.122612 C-21.42277266 2.84462292 -20.00148285 2.56552758 -18.58041954 2.28528595 C-16.58821928 1.89420067 -14.59430675 1.51186885 -12.6003418 1.12988281 C-10.9018232 0.80156464 -10.9018232 0.80156464 -9.16899109 0.46661377 C-6.04828853 0.00711018 -3.14893386 -0.15818194 0 0 Z " fill="#FEC822" transform="translate(146,0)"/>
<path d="M0 0 C0.495 0.495 0.495 0.495 1 1 C0.91062197 2.52519276 0.75462854 4.04681929 0.5625 5.5625 C0.46066406 6.38878906 0.35882813 7.21507812 0.25390625 8.06640625 C0.12822266 9.02353516 0.12822266 9.02353516 0 10 C-0.495 8.515 -0.495 8.515 -1 7 C-1.78375 7.309375 -2.5675 7.61875 -3.375 7.9375 C-7.11086367 9.03249452 -10.50387873 9.3956909 -14.36328125 9.71875 C-16.94368928 9.99399352 -19.40236033 10.45186169 -21.9375 11 C-26.38134299 11.94579444 -30.75695031 12.3629062 -35.28125 12.71875 C-38.7325285 13.07577881 -42.05353582 13.79556374 -45.44140625 14.52734375 C-49.15846195 15.21400595 -52.88480982 15.48828156 -56.65234375 15.75390625 C-59.15094335 15.93053642 -59.15094335 15.93053642 -62 17 C-65.9913263 17.84921836 -67.94911635 18.01272091 -72 17 C-72 20.63 -72 24.26 -72 28 C-72.66 27.67 -73.32 27.34 -74 27 C-74.08153933 25.41753293 -74.13943557 23.83383727 -74.1875 22.25 C-74.22230469 21.36828125 -74.25710937 20.4865625 -74.29296875 19.578125 C-73.93052807 16.38864705 -73.22076895 15.30613923 -71 13 C-68.21195984 12.02545166 -68.21195984 12.02545166 -64.7878418 11.35253906 C-63.50608566 11.09257141 -62.22432953 10.83260376 -60.9037323 10.5647583 C-59.5023256 10.29786638 -58.10081844 10.03150155 -56.69921875 9.765625 C-55.2603138 9.48114219 -53.82166189 9.19537677 -52.383255 8.90838623 C-49.36811958 8.31027259 -46.35115674 7.72294816 -43.33227539 7.14404297 C-39.47250745 6.40370918 -35.61682204 5.64432208 -31.76219463 4.87771988 C-28.79054273 4.28761309 -25.81765398 3.70396555 -22.84427834 3.122612 C-21.42277266 2.84462292 -20.00148285 2.56552758 -18.58041954 2.28528595 C-16.58821928 1.89420067 -14.59430675 1.51186885 -12.6003418 1.12988281 C-11.46799606 0.91100403 -10.33565033 0.69212524 -9.16899109 0.46661377 C-6.04828853 0.00711018 -3.14893386 -0.15818194 0 0 Z " fill="#F9DC5B" transform="translate(146,0)"/>
<path d="M0 0 C-1.625 2 -1.625 2 -4 4 C-7.0625 4.1875 -7.0625 4.1875 -10 4 C-10.99 4.33 -11.98 4.66 -13 5 C-14.51770283 5.17544088 -16.03939443 5.31770518 -17.5625 5.4375 C-22.14876422 5.84157614 -26.5006438 6.69715156 -30.96875 7.79296875 C-31.6390625 7.86128906 -32.309375 7.92960938 -33 8 C-33.66 7.34 -34.32 6.68 -35 6 C-32.39707958 3.39707958 -30.73070357 3.4552599 -27.109375 2.9296875 C-25.33240234 2.66865234 -25.33240234 2.66865234 -23.51953125 2.40234375 C-22.27558594 2.22832031 -21.03164062 2.05429688 -19.75 1.875 C-18.52152344 1.69324219 -17.29304688 1.51148438 -16.02734375 1.32421875 C-10.63031654 0.54653227 -5.46240217 -0.10571729 0 0 Z " fill="#FFE048" transform="translate(145,5)"/>
<path d="M0 0 C2.92879371 0.62759865 5.36095629 1.58622659 8 3 C3.21807286 5.9725493 -0.92026947 6.46424802 -6.51171875 6.7890625 C-9.1303197 6.91290497 -9.1303197 6.91290497 -12 8 C-12.66 7.34 -13.32 6.68 -14 6 C-13.34 5.34 -12.68 4.68 -12 4 C-10 4 -8 4 -6 4 C-3.23259665 3.22772827 -3.23259665 3.22772827 -1 2 C-0.67 1.34 -0.34 0.68 0 0 Z " fill="#FFE049" transform="translate(96,9)"/>
<path d="M0 0 C0.33 0.33 0.66 0.66 1 1 C0.91062197 2.52519276 0.75462854 4.04681929 0.5625 5.5625 C0.46066406 6.38878906 0.35882813 7.21507812 0.25390625 8.06640625 C0.17011719 8.70449219 0.08632812 9.34257812 0 10 C-0.268125 9.38125 -0.53625 8.7625 -0.8125 8.125 C-1.95556848 5.7004767 -1.95556848 5.7004767 -5 4 C-7.33199388 3.92094936 -9.66832622 3.91201231 -12 4 C-11.67 3.01 -11.34 2.02 -11 1 C-7.26835686 0.12196632 -3.83319229 -0.17423601 0 0 Z " fill="#F1D56E" transform="translate(146,0)"/>
<path d="M0 0 C-1 3 -1 3 -4 5 C-6.69921875 5.4140625 -6.69921875 5.4140625 -9.6875 5.625 C-11.17830078 5.73714844 -11.17830078 5.73714844 -12.69921875 5.8515625 C-13.45847656 5.90054687 -14.21773438 5.94953125 -15 6 C-14.67 4.68 -14.34 3.36 -14 2 C-12.22978678 1.663389 -10.45880326 1.33082707 -8.6875 1 C-7.70136719 0.814375 -6.71523437 0.62875 -5.69921875 0.4375 C-3 0 -3 0 0 0 Z " fill="#F7DB63" transform="translate(123,4)"/>
<path d="M0 0 C-2.25 2.0625 -2.25 2.0625 -5 4 C-7.3125 3.75 -7.3125 3.75 -9 3 C-8.67 2.01 -8.34 1.02 -8 0 C-4.71303767 -0.79953138 -3.28976808 -1.09658936 0 0 Z " fill="#F1D56D" transform="translate(117,6)"/>
<path d="M0 0 C-0.33 1.32 -0.66 2.64 -1 4 C-3.31 4 -5.62 4 -8 4 C-7.67 3.01 -7.34 2.02 -7 1 C-2.25 0 -2.25 0 0 0 Z " fill="#EFD36C" transform="translate(106,7)"/>
</svg>
